<svg width="1680" height="74" viewBox="0 0 1680 74" fill="none" xmlns="http://www.w3.org/2000/svg">
<g clip-path="url(#clip0_1004_6534)">
<path d="M18.8936 6.35826V26.0842C18.8936 27.1231 17.9482 27.9127 16.904 27.7327L2.89238 25.3777C1.86232 25.2115 1.24146 24.1864 1.55189 23.2029C3.97888 15.4316 9.32674 8.92097 16.3396 4.8899C17.4685 4.23883 18.8936 5.06998 18.8936 6.35826Z" fill="white"/>
<path d="M57.9089 11.2067L52.5046 31.1542C52.1095 32.6226 50.6279 33.5646 49.0899 33.3014L22.7739 28.8824C21.3346 28.6469 20.2764 27.4141 20.2764 25.9734V5.11157C20.2764 3.89255 21.0383 2.81206 22.1954 2.35492C26.0616 0.831149 30.2948 0 34.7254 0C43.234 0 51.023 3.08911 56.9635 8.20067C57.8383 8.94871 58.2193 10.1123 57.9089 11.2067Z" fill="white"/>
<path d="M18.8939 31.3339V55.9498C18.8939 56.8918 18.146 57.6675 17.2006 57.7229L1.93313 58.7064C0.888957 58.7757 0 57.9584 0 56.9333V34.4646C0 32.456 0.183436 30.4751 0.550307 28.5634C0.733742 27.5938 1.66503 26.9427 2.65276 27.1089L17.3982 29.5885C18.2589 29.727 18.8939 30.4612 18.8939 31.3339Z" fill="white"/>
<path d="M18.8939 61.505V71.7835C18.8939 73.0164 17.8779 74.0138 16.6221 74.0138H1.8908C0.846626 73.9999 0 73.1688 0 72.1437V62.4331C0 61.2556 0.931288 60.286 2.11656 60.2167L16.4669 59.2886C17.7791 59.1916 18.8939 60.2167 18.8939 61.505Z" fill="white"/>
<path d="M44.7867 59.7733L41.2873 72.6838C41.0757 73.4596 40.3702 73.9998 39.5518 73.9998H22.083C21.0953 73.9998 20.291 73.2102 20.291 72.2405V60.6737C20.291 59.7456 21.0248 58.9699 21.9702 58.9144L42.9383 57.5708C44.1659 57.4876 45.1113 58.6097 44.7867 59.7733Z" fill="white"/>
<path d="M67.208 55.9917C68.1675 55.9224 68.9859 56.6843 68.9859 57.6263V71.8943C68.9859 73.058 68.0264 74.0138 66.8412 74.0138H44.3915C43.2908 74.0138 42.4865 72.9887 42.7688 71.9497L46.4234 58.4713C46.6068 57.7925 47.2135 57.2938 47.9332 57.2523L67.208 55.9917Z" fill="white"/>
<path d="M69.0003 39.1056V53.4153C69.0003 54.1633 68.4077 54.7867 67.6457 54.8421L49.0199 56.0473C48.0322 56.1165 47.2561 55.2022 47.5242 54.2603L52.3641 36.4183C52.5617 35.6979 53.2813 35.2547 54.015 35.3793L67.8009 37.7065C68.4923 37.8174 69.0003 38.413 69.0003 39.1056Z" fill="white"/>
<path d="M69 33.0245V34.7422C69 35.5179 68.2944 36.0997 67.5184 35.9612L54.438 33.7587C53.7043 33.634 53.2386 32.9275 53.4362 32.221L58.7417 12.6059C58.9957 11.6501 60.2515 11.3592 60.9147 12.0934C65.938 17.6621 69 25.0039 69 33.0245Z" fill="white"/>
<path d="M51.0235 36.7919L46.0708 55.0356C45.8732 55.7837 45.1959 56.3239 44.4057 56.3793L22.2524 57.8061C21.1941 57.8754 20.291 57.0443 20.291 55.9915V31.7773C20.291 30.6553 21.3211 29.7964 22.4499 29.9903L49.556 34.534C50.6143 34.7279 51.3057 35.7668 51.0235 36.7919Z" fill="white"/>
</g>
<path d="M117.502 46.6404C118.202 46.6404 118.832 46.5604 119.392 46.4004C119.972 46.2404 120.442 46.0704 120.802 45.8904C121.162 45.6904 121.532 45.3804 121.912 44.9604C122.292 44.5204 122.572 44.1604 122.752 43.8804C122.952 43.5804 123.222 43.1404 123.562 42.5604C123.642 42.4204 123.702 42.3204 123.742 42.2604L122.752 47.0004H107.242C107.302 46.9204 107.462 46.8104 107.722 46.6704C108.002 46.5104 108.242 46.3004 108.442 46.0404C108.642 45.7604 108.742 45.4104 108.742 44.9904V28.0104C108.742 27.6704 108.672 27.3804 108.532 27.1404C108.412 26.9004 108.262 26.7304 108.082 26.6304C107.922 26.5104 107.752 26.4004 107.572 26.3004C107.412 26.1804 107.302 26.0804 107.242 26.0004H113.992C113.932 26.0804 113.762 26.2004 113.482 26.3604C113.222 26.5004 112.992 26.7104 112.792 26.9904C112.592 27.2504 112.492 27.5904 112.492 28.0104V46.6404H117.502ZM127.372 47.0004C127.412 46.9404 127.512 46.8404 127.672 46.7004C127.832 46.5604 127.942 46.4404 128.002 46.3404C128.082 46.2404 128.142 46.0704 128.182 45.8304C128.242 45.5704 128.192 45.2904 128.032 44.9904L126.232 40.6404H118.972L118.312 42.5004C118.172 42.8204 118.132 43.1104 118.192 43.3704C118.252 43.6104 118.332 43.7804 118.432 43.8804C118.532 43.9804 118.662 44.0904 118.822 44.2104C118.982 44.3304 119.082 44.4304 119.122 44.5104H115.732C115.792 44.4104 115.972 44.2904 116.272 44.1504C116.592 43.9904 116.912 43.7804 117.232 43.5204C117.572 43.2604 117.812 42.9204 117.952 42.5004L123.742 26.0004H124.132L132.022 44.9904C132.162 45.3104 132.352 45.5904 132.592 45.8304C132.852 46.0704 133.092 46.2504 133.312 46.3704C133.532 46.4704 133.742 46.5804 133.942 46.7004C134.162 46.8204 134.302 46.9204 134.362 47.0004H127.372ZM119.122 40.2504H126.052L122.302 31.1904L119.122 40.2504Z" fill="white"/>
<path d="M139.514 29.7504C139.574 30.4904 139.834 31.1504 140.294 31.7304C140.754 32.3104 141.334 32.7904 142.034 33.1704C142.734 33.5504 143.504 33.9204 144.344 34.2804C145.184 34.6404 146.014 35.0204 146.834 35.4204C147.674 35.8004 148.434 36.2304 149.114 36.7104C149.814 37.1904 150.374 37.8104 150.794 38.5704C151.214 39.3104 151.424 40.1604 151.424 41.1204C151.424 43.0204 150.694 44.5404 149.234 45.6804C147.794 46.8004 145.924 47.3604 143.624 47.3604C141.304 47.3604 139.304 46.8604 137.624 45.8604C137.224 45.6204 136.884 45.6104 136.604 45.8304C136.324 46.0504 136.124 46.3604 136.004 46.7604L135.434 40.6404C135.634 41.1204 135.844 41.5804 136.064 42.0204C136.284 42.4604 136.634 43.0104 137.114 43.6704C137.594 44.3104 138.104 44.8604 138.644 45.3204C139.204 45.7804 139.924 46.1804 140.804 46.5204C141.684 46.8404 142.624 47.0004 143.624 47.0004C145.044 47.0004 146.184 46.6704 147.044 46.0104C147.904 45.3504 148.314 44.3904 148.274 43.1304C148.254 42.4304 148.064 41.7904 147.704 41.2104C147.344 40.6104 146.874 40.1104 146.294 39.7104C145.734 39.2904 145.084 38.8804 144.344 38.4804C143.604 38.0604 142.854 37.6904 142.094 37.3704C141.334 37.0504 140.584 36.6804 139.844 36.2604C139.124 35.8404 138.464 35.4204 137.864 35.0004C137.284 34.5604 136.804 34.0304 136.424 33.4104C136.064 32.7904 135.854 32.1204 135.794 31.4004C135.754 30.6004 135.874 29.8704 136.154 29.2104C136.454 28.5504 136.854 28.0104 137.354 27.5904C137.854 27.1504 138.434 26.7804 139.094 26.4804C139.774 26.1804 140.464 25.9704 141.164 25.8504C141.864 25.7104 142.554 25.6404 143.234 25.6404C145.034 25.6404 146.664 26.1304 148.124 27.1104C148.384 27.2504 148.594 27.2704 148.754 27.1704C148.914 27.0704 149.034 26.9304 149.114 26.7504L149.204 26.4504L149.564 31.9404C149.384 31.2204 149.124 30.5404 148.784 29.9004C148.464 29.2604 148.054 28.6404 147.554 28.0404C147.054 27.4204 146.434 26.9304 145.694 26.5704C144.954 26.1904 144.134 26.0004 143.234 26.0004C142.194 26.0004 141.294 26.3204 140.534 26.9604C139.794 27.5804 139.454 28.5104 139.514 29.7504Z" fill="white"/>
<path d="M189.301 20.4004H193.595C193.519 20.5017 193.278 20.6537 192.873 20.8564C192.493 21.0337 192.1 21.2997 191.695 21.6544C191.29 21.9837 190.998 22.4144 190.821 22.9464L182.347 47.0004H181.891L171.859 22.9464C171.682 22.5411 171.441 22.1864 171.137 21.8824C170.833 21.5784 170.529 21.3631 170.225 21.2364C169.946 21.0844 169.668 20.9324 169.389 20.7804C169.136 20.6284 168.971 20.5017 168.895 20.4004H177.749C177.698 20.4764 177.572 20.6031 177.369 20.7804C177.192 20.9577 177.052 21.1097 176.951 21.2364C176.85 21.3631 176.761 21.5911 176.685 21.9204C176.634 22.2244 176.71 22.5664 176.913 22.9464L184.171 40.4264L190.327 22.9464C190.504 22.5411 190.555 22.1864 190.479 21.8824C190.403 21.5531 190.302 21.3251 190.175 21.1984C190.074 21.0717 189.922 20.9324 189.719 20.7804C189.516 20.6031 189.377 20.4764 189.301 20.4004Z" fill="white"/>
<path d="M225.229 26.0004H228.619C228.559 26.0804 228.439 26.1804 228.259 26.3004C228.079 26.4004 227.909 26.5104 227.749 26.6304C227.589 26.7304 227.439 26.9004 227.299 27.1404C227.179 27.3804 227.119 27.6704 227.119 28.0104V47.0004H226.729L211.729 27.8304V43.0104C211.729 43.4304 211.829 43.7704 212.029 44.0304C212.229 44.2904 212.469 44.5004 212.749 44.6604C213.029 44.8004 213.189 44.9104 213.229 44.9904H209.869C209.909 44.9104 210.019 44.8204 210.199 44.7204C210.379 44.6004 210.549 44.4904 210.709 44.3904C210.869 44.2704 211.019 44.0904 211.159 43.8504C211.299 43.6104 211.369 43.3304 211.369 43.0104V28.0104C211.369 27.5904 211.259 27.2504 211.039 26.9904C210.839 26.7104 210.599 26.5004 210.319 26.3604C210.059 26.2004 209.909 26.0804 209.869 26.0004H214.489L226.729 41.2704V28.0104C226.729 27.6704 226.659 27.3804 226.519 27.1404C226.399 26.9004 226.259 26.7304 226.099 26.6304C225.939 26.5104 225.769 26.4004 225.589 26.3004C225.409 26.1804 225.289 26.0804 225.229 26.0004ZM212.599 46.6404C213.359 46.6404 214.049 46.5304 214.669 46.3104C215.309 46.0704 215.839 45.8004 216.259 45.5004C216.679 45.1804 217.079 44.7704 217.459 44.2704C217.859 43.7504 218.169 43.3004 218.389 42.9204C218.609 42.5404 218.849 42.0704 219.109 41.5104L217.849 47.0004H194.359C194.419 46.9204 194.579 46.8104 194.839 46.6704C195.119 46.5104 195.359 46.3004 195.559 46.0404C195.759 45.7604 195.859 45.4104 195.859 44.9904V28.0104C195.859 27.6704 195.789 27.3804 195.649 27.1404C195.529 26.9004 195.379 26.7304 195.199 26.6304C195.039 26.5104 194.869 26.4004 194.689 26.3004C194.529 26.1804 194.419 26.0804 194.359 26.0004H207.619L208.609 30.7404C208.569 30.6804 208.509 30.5904 208.429 30.4704C208.089 29.8704 207.819 29.4304 207.619 29.1504C207.439 28.8504 207.159 28.4904 206.779 28.0704C206.399 27.6304 206.029 27.3204 205.669 27.1404C205.309 26.9404 204.839 26.7704 204.259 26.6304C203.699 26.4704 203.069 26.3904 202.369 26.3904H199.609V35.8704H202.879C203.279 35.8704 203.609 35.7104 203.869 35.3904C204.149 35.0704 204.359 34.7004 204.499 34.2804C204.659 33.8404 204.779 33.5804 204.859 33.5004V38.6304C204.779 38.5504 204.659 38.3004 204.499 37.8804C204.359 37.4404 204.149 37.0604 203.869 36.7404C203.609 36.4204 203.269 36.2604 202.849 36.2604H199.609V46.6404H212.599Z" fill="white"/>
<path d="M230.724 26.0004H247.494L248.484 30.7404C248.444 30.6804 248.384 30.5804 248.304 30.4404C247.964 29.8604 247.694 29.4304 247.494 29.1504C247.314 28.8504 247.034 28.4904 246.654 28.0704C246.274 27.6304 245.904 27.3204 245.544 27.1404C245.184 26.9404 244.714 26.7604 244.134 26.6004C243.574 26.4404 242.944 26.3604 242.244 26.3604H240.984V44.9904C240.984 45.4104 241.084 45.7604 241.284 46.0404C241.484 46.3004 241.714 46.5104 241.974 46.6704C242.254 46.8104 242.424 46.9204 242.484 47.0004H235.734C235.794 46.9204 235.954 46.8104 236.214 46.6704C236.494 46.5104 236.734 46.3004 236.934 46.0404C237.134 45.7604 237.234 45.4104 237.234 44.9904V26.3604H235.974C235.274 26.3604 234.634 26.4404 234.054 26.6004C233.494 26.7604 233.034 26.9404 232.674 27.1404C232.314 27.3204 231.944 27.6304 231.564 28.0704C231.184 28.4904 230.894 28.8504 230.694 29.1504C230.514 29.4304 230.254 29.8604 229.914 30.4404C229.834 30.5804 229.774 30.6804 229.734 30.7404L230.724 26.0004Z" fill="white"/>
<path d="M262.181 44.9904C262.361 45.3904 262.621 45.7304 262.961 46.0104C263.301 46.2704 263.631 46.4804 263.951 46.6404C264.271 46.7804 264.461 46.9004 264.521 47.0004H257.531C257.571 46.9404 257.661 46.8404 257.801 46.7004C257.961 46.5604 258.081 46.4404 258.161 46.3404C258.241 46.2404 258.301 46.0704 258.341 45.8304C258.401 45.5704 258.351 45.2904 258.191 44.9904L256.361 40.6404H249.131L247.601 44.9904C247.461 45.3104 247.421 45.6004 247.481 45.8604C247.541 46.1004 247.611 46.2704 247.691 46.3704C247.791 46.4704 247.921 46.5904 248.081 46.7304C248.241 46.8504 248.341 46.9404 248.381 47.0004H245.021C245.081 46.9204 245.261 46.8104 245.561 46.6704C245.881 46.5104 246.201 46.3004 246.521 46.0404C246.841 45.7604 247.071 45.4104 247.211 44.9904L253.901 26.0004H254.261L262.181 44.9904ZM249.281 40.2504H256.211L252.461 31.1904L249.281 40.2504Z" fill="white"/>
<path d="M280.764 26.0004H284.154C284.094 26.0804 283.974 26.1804 283.794 26.3004C283.634 26.4004 283.464 26.5104 283.284 26.6304C283.124 26.7304 282.974 26.9004 282.834 27.1404C282.714 27.3804 282.654 27.6704 282.654 28.0104V47.0004H282.264L267.294 27.8304V44.9904C267.294 45.4104 267.394 45.7604 267.594 46.0404C267.794 46.3004 268.024 46.5104 268.284 46.6704C268.564 46.8104 268.734 46.9204 268.794 47.0004H265.404C265.464 46.9204 265.624 46.8104 265.884 46.6704C266.164 46.5104 266.404 46.3004 266.604 46.0404C266.804 45.7604 266.904 45.4104 266.904 44.9904V28.0104C266.904 27.5904 266.804 27.2504 266.604 26.9904C266.404 26.7104 266.164 26.5004 265.884 26.3604C265.624 26.2004 265.464 26.0804 265.404 26.0004H270.024L282.264 41.2704V28.0104C282.264 27.7304 282.224 27.4904 282.144 27.2904C282.064 27.0904 281.954 26.9304 281.814 26.8104C281.694 26.6704 281.564 26.5604 281.424 26.4804C281.284 26.4004 281.154 26.3204 281.034 26.2404C280.914 26.1404 280.824 26.0604 280.764 26.0004Z" fill="white"/>
<path d="M302.172 44.9904C302.352 45.3904 302.612 45.7304 302.952 46.0104C303.292 46.2704 303.622 46.4804 303.942 46.6404C304.262 46.7804 304.452 46.9004 304.512 47.0004H297.522C297.562 46.9404 297.652 46.8404 297.792 46.7004C297.952 46.5604 298.072 46.4404 298.152 46.3404C298.232 46.2404 298.292 46.0704 298.332 45.8304C298.392 45.5704 298.342 45.2904 298.182 44.9904L296.352 40.6404H289.122L287.592 44.9904C287.452 45.3104 287.412 45.6004 287.472 45.8604C287.532 46.1004 287.602 46.2704 287.682 46.3704C287.782 46.4704 287.912 46.5904 288.072 46.7304C288.232 46.8504 288.332 46.9404 288.372 47.0004H285.012C285.072 46.9204 285.252 46.8104 285.552 46.6704C285.872 46.5104 286.192 46.3004 286.512 46.0404C286.832 45.7604 287.062 45.4104 287.202 44.9904L293.892 26.0004H294.252L302.172 44.9904ZM289.272 40.2504H296.202L292.452 31.1904L289.272 40.2504Z" fill="white"/>
<path d="M309.744 29.7504C309.804 30.4904 310.064 31.1504 310.524 31.7304C310.984 32.3104 311.564 32.7904 312.264 33.1704C312.964 33.5504 313.734 33.9204 314.574 34.2804C315.414 34.6404 316.244 35.0204 317.064 35.4204C317.904 35.8004 318.664 36.2304 319.344 36.7104C320.044 37.1904 320.604 37.8104 321.024 38.5704C321.444 39.3104 321.654 40.1604 321.654 41.1204C321.654 43.0204 320.924 44.5404 319.464 45.6804C318.024 46.8004 316.154 47.3604 313.854 47.3604C311.534 47.3604 309.534 46.8604 307.854 45.8604C307.454 45.6204 307.114 45.6104 306.834 45.8304C306.554 46.0504 306.354 46.3604 306.234 46.7604L305.664 40.6404C305.864 41.1204 306.074 41.5804 306.294 42.0204C306.514 42.4604 306.864 43.0104 307.344 43.6704C307.824 44.3104 308.334 44.8604 308.874 45.3204C309.434 45.7804 310.154 46.1804 311.034 46.5204C311.914 46.8404 312.854 47.0004 313.854 47.0004C315.274 47.0004 316.414 46.6704 317.274 46.0104C318.134 45.3504 318.544 44.3904 318.504 43.1304C318.484 42.4304 318.294 41.7904 317.934 41.2104C317.574 40.6104 317.104 40.1104 316.524 39.7104C315.964 39.2904 315.314 38.8804 314.574 38.4804C313.834 38.0604 313.084 37.6904 312.324 37.3704C311.564 37.0504 310.814 36.6804 310.074 36.2604C309.354 35.8404 308.694 35.4204 308.094 35.0004C307.514 34.5604 307.034 34.0304 306.654 33.4104C306.294 32.7904 306.084 32.1204 306.024 31.4004C305.984 30.6004 306.104 29.8704 306.384 29.2104C306.684 28.5504 307.084 28.0104 307.584 27.5904C308.084 27.1504 308.664 26.7804 309.324 26.4804C310.004 26.1804 310.694 25.9704 311.394 25.8504C312.094 25.7104 312.784 25.6404 313.464 25.6404C315.264 25.6404 316.894 26.1304 318.354 27.1104C318.614 27.2504 318.824 27.2704 318.984 27.1704C319.144 27.0704 319.264 26.9304 319.344 26.7504L319.434 26.4504L319.794 31.9404C319.614 31.2204 319.354 30.5404 319.014 29.9004C318.694 29.2604 318.284 28.6404 317.784 28.0404C317.284 27.4204 316.664 26.9304 315.924 26.5704C315.184 26.1904 314.364 26.0004 313.464 26.0004C312.424 26.0004 311.524 26.3204 310.764 26.9604C310.024 27.5804 309.684 28.5104 309.744 29.7504Z" fill="white"/>
<path d="M185.923 68.9996V59.0596H189.227C190.011 59.0596 190.697 59.1902 191.285 59.4516C191.882 59.7129 192.377 60.0676 192.769 60.5156C193.161 60.9636 193.455 61.4909 193.651 62.0976C193.847 62.6949 193.945 63.3342 193.945 64.0156C193.945 64.7716 193.833 65.4576 193.609 66.0736C193.394 66.6802 193.082 67.2029 192.671 67.6416C192.26 68.0709 191.761 68.4069 191.173 68.6496C190.594 68.8829 189.946 68.9996 189.227 68.9996H185.923ZM193.231 64.0156C193.231 63.3902 193.142 62.8162 192.965 62.2936C192.788 61.7616 192.526 61.3042 192.181 60.9216C191.845 60.5389 191.43 60.2402 190.935 60.0256C190.44 59.8109 189.871 59.7036 189.227 59.7036H186.637V68.3556H189.227C189.88 68.3556 190.454 68.2482 190.949 68.0336C191.453 67.8096 191.873 67.5016 192.209 67.1096C192.545 66.7176 192.797 66.2602 192.965 65.7376C193.142 65.2056 193.231 64.6316 193.231 64.0156Z" fill="white"/>
<path d="M202.525 68.3556V68.9996H195.903V59.0596H202.399V59.7036H196.617V63.6096H201.671V64.2256H196.617V68.3556H202.525Z" fill="white"/>
<path d="M204.476 68.9996V59.0596H205.19V68.3556H211.126V68.9996H204.476Z" fill="white"/>
<path d="M224.825 68.9996V60.4036L220.905 67.1096H220.457L216.537 60.4036V68.9996H215.823V59.0596H216.537L220.681 66.1716L224.825 59.0596H225.539V68.9996H224.825Z" fill="white"/>
<path d="M231.264 59.0596H231.88L236.08 68.9996H235.324L233.938 65.7236H229.192L227.806 68.9996H227.036L231.264 59.0596ZM233.742 65.1356L231.572 59.9276L229.36 65.1356H233.742Z" fill="white"/>
<path d="M237.589 68.9996V59.0596H241.719C242.139 59.0596 242.526 59.1482 242.881 59.3256C243.236 59.5029 243.539 59.7409 243.791 60.0396C244.052 60.3289 244.253 60.6602 244.393 61.0336C244.542 61.3976 244.617 61.7662 244.617 62.1396C244.617 62.5036 244.561 62.8582 244.449 63.2036C244.337 63.5396 244.178 63.8429 243.973 64.1136C243.768 64.3842 243.52 64.6082 243.231 64.7856C242.942 64.9629 242.624 65.0796 242.279 65.1356L244.757 68.9996H243.931L241.523 65.2476H238.303V68.9996H237.589ZM238.303 64.5896H241.789C242.106 64.5896 242.396 64.5196 242.657 64.3796C242.918 64.2396 243.142 64.0576 243.329 63.8336C243.516 63.6002 243.656 63.3389 243.749 63.0496C243.852 62.7509 243.903 62.4476 243.903 62.1396C243.903 61.8222 243.842 61.5189 243.721 61.2296C243.609 60.9309 243.45 60.6696 243.245 60.4456C243.049 60.2216 242.816 60.0442 242.545 59.9136C242.284 59.7736 241.999 59.7036 241.691 59.7036H238.303V64.5896Z" fill="white"/>
<path d="M878.442 37.8594V43.5H876.865V29.9365H880.585C882.249 29.9365 883.476 30.255 884.268 30.8921C885.066 31.5291 885.465 32.4878 885.465 33.7681C885.465 35.5617 884.556 36.7739 882.737 37.4048L886.42 43.5H884.556L881.271 37.8594H878.442ZM878.442 36.5049H880.604C881.717 36.5049 882.533 36.2853 883.053 35.8462C883.572 35.4009 883.832 34.736 883.832 33.8516C883.832 32.9548 883.566 32.3084 883.034 31.9126C882.508 31.5168 881.661 31.3188 880.492 31.3188H878.442V36.5049ZM899.971 43.5H892.41V29.9365H899.971V31.3374H893.987V35.707H899.609V37.0986H893.987V42.0898H899.971V43.5ZM915.312 43.5L913.623 39.186H908.187L906.517 43.5H904.921L910.284 29.8809H911.61L916.945 43.5H915.312ZM913.132 37.7666L911.555 33.564C911.35 33.0321 911.14 32.3796 910.924 31.6064C910.788 32.2002 910.593 32.8527 910.339 33.564L908.744 37.7666H913.132ZM922.609 43.5V29.9365H924.187V42.0713H930.171V43.5H922.609ZM952.577 43.5H945.016V29.9365H952.577V31.3374H946.593V35.707H952.215V37.0986H946.593V42.0898H952.577V43.5ZM967.046 39.8911C967.046 41.0848 966.613 42.0156 965.747 42.6836C964.881 43.3516 963.706 43.6855 962.222 43.6855C960.614 43.6855 959.377 43.4784 958.511 43.064V41.5425C959.068 41.7775 959.674 41.9631 960.329 42.0991C960.985 42.2352 961.634 42.3032 962.278 42.3032C963.329 42.3032 964.121 42.1053 964.653 41.7095C965.184 41.3075 965.45 40.7508 965.45 40.0396C965.45 39.5695 965.355 39.186 965.163 38.8892C964.977 38.5861 964.662 38.3078 964.217 38.0542C963.777 37.8006 963.106 37.513 962.203 37.1914C960.942 36.7399 960.039 36.2049 959.494 35.5864C958.956 34.9679 958.687 34.1608 958.687 33.165C958.687 32.1198 959.08 31.2879 959.865 30.6694C960.651 30.0509 961.69 29.7417 962.983 29.7417C964.331 29.7417 965.571 29.9891 966.703 30.4839L966.211 31.8569C965.092 31.3869 964.003 31.1519 962.946 31.1519C962.111 31.1519 961.458 31.3312 960.988 31.6899C960.518 32.0487 960.283 32.5465 960.283 33.1836C960.283 33.6536 960.37 34.0402 960.543 34.3433C960.716 34.6401 961.007 34.9154 961.415 35.1689C961.829 35.4163 962.46 35.6916 963.307 35.9946C964.73 36.5018 965.707 37.0461 966.239 37.6274C966.777 38.2088 967.046 38.9634 967.046 39.8911ZM977.795 43.5H976.218V31.3374H971.922V29.9365H982.09V31.3374H977.795V43.5ZM996.466 43.5L994.778 39.186H989.341L987.671 43.5H986.076L991.438 29.8809H992.765L998.099 43.5H996.466ZM994.286 37.7666L992.709 33.564C992.505 33.0321 992.295 32.3796 992.078 31.6064C991.942 32.2002 991.747 32.8527 991.494 33.564L989.898 37.7666H994.286ZM1007.94 43.5H1006.36V31.3374H1002.07V29.9365H1012.23V31.3374H1007.94V43.5ZM1025.65 43.5H1018.08V29.9365H1025.65V31.3374H1019.66V35.707H1025.28V37.0986H1019.66V42.0898H1025.65V43.5Z" fill="white"/>
<rect x="875.5" y="58" width="119" height="7" stroke="#FFD983"/>
<path d="M1076.43 43.5H1068.86V29.9365H1076.43V31.3374H1070.44V35.707H1076.06V37.0986H1070.44V42.0898H1076.43V43.5ZM1092.27 43.5H1090.48L1086.83 37.5347L1083.12 43.5H1081.45L1085.96 36.4121L1081.76 29.9365H1083.5L1086.87 35.3081L1090.26 29.9365H1091.94L1087.74 36.3564L1092.27 43.5ZM1106.61 33.8887C1106.61 35.2617 1106.14 36.3193 1105.2 37.0615C1104.26 37.7975 1102.92 38.1655 1101.18 38.1655H1099.58V43.5H1098.01V29.9365H1101.52C1104.91 29.9365 1106.61 31.2539 1106.61 33.8887ZM1099.58 36.811H1101C1102.4 36.811 1103.41 36.5853 1104.04 36.1338C1104.66 35.6823 1104.97 34.9587 1104.97 33.9629C1104.97 33.0661 1104.68 32.3981 1104.09 31.959C1103.51 31.5199 1102.59 31.3003 1101.35 31.3003H1099.58V36.811ZM1120.82 43.5H1113.25V29.9365H1120.82V31.3374H1114.83V35.707H1120.45V37.0986H1114.83V42.0898H1120.82V43.5ZM1129.21 37.8594V43.5H1127.63V29.9365H1131.35C1133.02 29.9365 1134.24 30.255 1135.03 30.8921C1135.83 31.5291 1136.23 32.4878 1136.23 33.7681C1136.23 35.5617 1135.32 36.7739 1133.5 37.4048L1137.19 43.5H1135.32L1132.04 37.8594H1129.21ZM1129.21 36.5049H1131.37C1132.48 36.5049 1133.3 36.2853 1133.82 35.8462C1134.34 35.4009 1134.6 34.736 1134.6 33.8516C1134.6 32.9548 1134.33 32.3084 1133.8 31.9126C1133.27 31.5168 1132.43 31.3188 1131.26 31.3188H1129.21V36.5049ZM1143.18 43.5V29.9365H1144.75V43.5H1143.18ZM1159.84 43.5H1152.28V29.9365H1159.84V31.3374H1153.86V35.707H1159.48V37.0986H1153.86V42.0898H1159.84V43.5ZM1177.25 43.5H1175.45L1168.04 32.1167H1167.97C1168.07 33.4526 1168.12 34.6772 1168.12 35.7905V43.5H1166.66V29.9365H1168.44L1175.83 41.2734H1175.91C1175.9 41.1064 1175.87 40.5715 1175.83 39.6685C1175.78 38.7593 1175.77 38.1099 1175.78 37.7202V29.9365H1177.25V43.5ZM1190.59 31.1519C1189.1 31.1519 1187.92 31.6497 1187.06 32.6455C1186.2 33.6351 1185.77 34.9927 1185.77 36.7183C1185.77 38.4933 1186.18 39.8664 1187.01 40.8374C1187.84 41.8022 1189.03 42.2847 1190.57 42.2847C1191.52 42.2847 1192.6 42.1146 1193.81 41.7744V43.1567C1192.87 43.5093 1191.71 43.6855 1190.33 43.6855C1188.33 43.6855 1186.79 43.0794 1185.7 41.8672C1184.62 40.6549 1184.08 38.9325 1184.08 36.6997C1184.08 35.3019 1184.34 34.0773 1184.86 33.0259C1185.38 31.9744 1186.14 31.1642 1187.12 30.5952C1188.11 30.0262 1189.27 29.7417 1190.61 29.7417C1192.03 29.7417 1193.28 30.0015 1194.34 30.521L1193.67 31.8755C1192.64 31.3931 1191.62 31.1519 1190.59 31.1519ZM1208.13 43.5H1200.57V29.9365H1208.13V31.3374H1202.15V35.707H1207.77V37.0986H1202.15V42.0898H1208.13V43.5ZM1222.6 39.8911C1222.6 41.0848 1222.17 42.0156 1221.3 42.6836C1220.43 43.3516 1219.26 43.6855 1217.78 43.6855C1216.17 43.6855 1214.93 43.4784 1214.06 43.064V41.5425C1214.62 41.7775 1215.23 41.9631 1215.88 42.0991C1216.54 42.2352 1217.19 42.3032 1217.83 42.3032C1218.88 42.3032 1219.67 42.1053 1220.21 41.7095C1220.74 41.3075 1221 40.7508 1221 40.0396C1221 39.5695 1220.91 39.186 1220.72 38.8892C1220.53 38.5861 1220.22 38.3078 1219.77 38.0542C1219.33 37.8006 1218.66 37.513 1217.76 37.1914C1216.5 36.7399 1215.59 36.2049 1215.05 35.5864C1214.51 34.9679 1214.24 34.1608 1214.24 33.165C1214.24 32.1198 1214.63 31.2879 1215.42 30.6694C1216.2 30.0509 1217.24 29.7417 1218.54 29.7417C1219.88 29.7417 1221.12 29.9891 1222.26 30.4839L1221.76 31.8569C1220.65 31.3869 1219.56 31.1519 1218.5 31.1519C1217.66 31.1519 1217.01 31.3312 1216.54 31.6899C1216.07 32.0487 1215.84 32.5465 1215.84 33.1836C1215.84 33.6536 1215.92 34.0402 1216.1 34.3433C1216.27 34.6401 1216.56 34.9154 1216.97 35.1689C1217.38 35.4163 1218.01 35.6916 1218.86 35.9946C1220.28 36.5018 1221.26 37.0461 1221.79 37.6274C1222.33 38.2088 1222.6 38.9634 1222.6 39.8911Z" fill="white"/>
<path d="M1273.61 29.9365H1275.31L1270.42 43.5H1268.86L1264 29.9365H1265.67L1268.79 38.7129C1269.15 39.721 1269.43 40.7013 1269.64 41.6538C1269.86 40.6519 1270.15 39.653 1270.51 38.6572L1273.61 29.9365ZM1289.51 43.5L1287.82 39.186H1282.38L1280.71 43.5H1279.12L1284.48 29.8809H1285.81L1291.14 43.5H1289.51ZM1287.33 37.7666L1285.75 33.564C1285.55 33.0321 1285.34 32.3796 1285.12 31.6064C1284.98 32.2002 1284.79 32.8527 1284.54 33.564L1282.94 37.7666H1287.33ZM1302.61 31.1519C1301.12 31.1519 1299.95 31.6497 1299.08 32.6455C1298.22 33.6351 1297.79 34.9927 1297.79 36.7183C1297.79 38.4933 1298.2 39.8664 1299.03 40.8374C1299.87 41.8022 1301.06 42.2847 1302.6 42.2847C1303.54 42.2847 1304.62 42.1146 1305.83 41.7744V43.1567C1304.89 43.5093 1303.73 43.6855 1302.35 43.6855C1300.36 43.6855 1298.81 43.0794 1297.73 41.8672C1296.64 40.6549 1296.1 38.9325 1296.1 36.6997C1296.1 35.3019 1296.36 34.0773 1296.88 33.0259C1297.41 31.9744 1298.16 31.1642 1299.14 30.5952C1300.13 30.0262 1301.3 29.7417 1302.63 29.7417C1304.06 29.7417 1305.3 30.0015 1306.36 30.521L1305.69 31.8755C1304.67 31.3931 1303.64 31.1519 1302.61 31.1519ZM1321.12 43.5L1319.43 39.186H1313.99L1312.32 43.5H1310.73L1316.09 29.8809H1317.42L1322.75 43.5H1321.12ZM1318.94 37.7666L1317.36 33.564C1317.16 33.0321 1316.95 32.3796 1316.73 31.6064C1316.59 32.2002 1316.4 32.8527 1316.15 33.564L1314.55 37.7666H1318.94ZM1332.59 43.5H1331.01V31.3374H1326.72V29.9365H1336.89V31.3374H1332.59V43.5ZM1342.74 43.5V29.9365H1344.31V43.5H1342.74ZM1363.62 36.6997C1363.62 38.8706 1363.07 40.5776 1361.97 41.8208C1360.87 43.064 1359.35 43.6855 1357.39 43.6855C1355.39 43.6855 1353.85 43.0763 1352.76 41.8579C1351.68 40.6333 1351.14 38.9077 1351.14 36.6812C1351.14 34.4731 1351.68 32.763 1352.77 31.5508C1353.86 30.3324 1355.41 29.7231 1357.41 29.7231C1359.36 29.7231 1360.88 30.3416 1361.97 31.5786C1363.07 32.8156 1363.62 34.5226 1363.62 36.6997ZM1352.81 36.6997C1352.81 38.5366 1353.2 39.9313 1353.98 40.8838C1354.76 41.8301 1355.9 42.3032 1357.39 42.3032C1358.89 42.3032 1360.03 41.8301 1360.8 40.8838C1361.56 39.9375 1361.95 38.5428 1361.95 36.6997C1361.95 34.8752 1361.56 33.4928 1360.8 32.5527C1360.04 31.6064 1358.91 31.1333 1357.41 31.1333C1355.91 31.1333 1354.76 31.6095 1353.98 32.562C1353.2 33.5083 1352.81 34.8875 1352.81 36.6997ZM1381.04 43.5H1379.25L1371.83 32.1167H1371.76C1371.86 33.4526 1371.91 34.6772 1371.91 35.7905V43.5H1370.45V29.9365H1372.23L1379.63 41.2734H1379.7C1379.69 41.1064 1379.66 40.5715 1379.62 39.6685C1379.57 38.7593 1379.56 38.1099 1379.57 37.7202V29.9365H1381.04V43.5ZM1397.1 43.5L1395.41 39.186H1389.98L1388.31 43.5H1386.71L1392.07 29.8809H1393.4L1398.73 43.5H1397.1ZM1394.92 37.7666L1393.34 33.564C1393.14 33.0321 1392.93 32.3796 1392.71 31.6064C1392.58 32.2002 1392.38 32.8527 1392.13 33.564L1390.53 37.7666H1394.92ZM1404.4 43.5V29.9365H1405.97V42.0713H1411.96V43.5H1404.4ZM1428.38 37.8594V43.5H1426.8V29.9365H1430.52C1432.19 29.9365 1433.42 30.255 1434.21 30.8921C1435.01 31.5291 1435.4 32.4878 1435.4 33.7681C1435.4 35.5617 1434.5 36.7739 1432.68 37.4048L1436.36 43.5H1434.5L1431.21 37.8594H1428.38ZM1428.38 36.5049H1430.54C1431.66 36.5049 1432.47 36.2853 1432.99 35.8462C1433.51 35.4009 1433.77 34.736 1433.77 33.8516C1433.77 32.9548 1433.51 32.3084 1432.97 31.9126C1432.45 31.5168 1431.6 31.3188 1430.43 31.3188H1428.38V36.5049ZM1449.91 43.5H1442.35V29.9365H1449.91V31.3374H1443.93V35.707H1449.55V37.0986H1443.93V42.0898H1449.91V43.5ZM1467.32 43.5H1465.52L1458.11 32.1167H1458.03C1458.13 33.4526 1458.18 34.6772 1458.18 35.7905V43.5H1456.73V29.9365H1458.51L1465.9 41.2734H1465.98C1465.96 41.1064 1465.93 40.5715 1465.89 39.6685C1465.85 38.7593 1465.83 38.1099 1465.85 37.7202V29.9365H1467.32V43.5ZM1479.02 43.5H1477.45V31.3374H1473.15V29.9365H1483.32V31.3374H1479.02V43.5ZM1497.7 43.5L1496.01 39.186H1490.57L1488.9 43.5H1487.31L1492.67 29.8809H1493.99L1499.33 43.5H1497.7ZM1495.52 37.7666L1493.94 33.564C1493.73 33.0321 1493.52 32.3796 1493.31 31.6064C1493.17 32.2002 1492.98 32.8527 1492.72 33.564L1491.13 37.7666H1495.52ZM1504.99 43.5V29.9365H1506.57V42.0713H1512.55V43.5H1504.99ZM1526.32 39.8911C1526.32 41.0848 1525.89 42.0156 1525.02 42.6836C1524.15 43.3516 1522.98 43.6855 1521.49 43.6855C1519.89 43.6855 1518.65 43.4784 1517.78 43.064V41.5425C1518.34 41.7775 1518.95 41.9631 1519.6 42.0991C1520.26 42.2352 1520.91 42.3032 1521.55 42.3032C1522.6 42.3032 1523.39 42.1053 1523.93 41.7095C1524.46 41.3075 1524.72 40.7508 1524.72 40.0396C1524.72 39.5695 1524.63 39.186 1524.44 38.8892C1524.25 38.5861 1523.93 38.3078 1523.49 38.0542C1523.05 37.8006 1522.38 37.513 1521.48 37.1914C1520.21 36.7399 1519.31 36.2049 1518.77 35.5864C1518.23 34.9679 1517.96 34.1608 1517.96 33.165C1517.96 32.1198 1518.35 31.2879 1519.14 30.6694C1519.92 30.0509 1520.96 29.7417 1522.26 29.7417C1523.6 29.7417 1524.84 29.9891 1525.98 30.4839L1525.48 31.8569C1524.36 31.3869 1523.28 31.1519 1522.22 31.1519C1521.38 31.1519 1520.73 31.3312 1520.26 31.6899C1519.79 32.0487 1519.56 32.5465 1519.56 33.1836C1519.56 33.6536 1519.64 34.0402 1519.82 34.3433C1519.99 34.6401 1520.28 34.9154 1520.69 35.1689C1521.1 35.4163 1521.73 35.6916 1522.58 35.9946C1524 36.5018 1524.98 37.0461 1525.51 37.6274C1526.05 38.2088 1526.32 38.9634 1526.32 39.8911Z" fill="white"/>
<path fill-rule="evenodd" clip-rule="evenodd" d="M1572.03 22.5625C1565.14 22.5625 1559.56 28.1449 1559.56 35.0312C1559.56 41.9176 1565.14 47.5 1572.03 47.5C1578.92 47.5 1584.5 41.9176 1584.5 35.0312C1584.5 28.1449 1578.92 22.5625 1572.03 22.5625ZM1556.94 35.0312C1556.94 26.6952 1563.7 19.9375 1572.03 19.9375C1580.37 19.9375 1587.12 26.6952 1587.12 35.0312C1587.12 43.3673 1580.37 50.125 1572.03 50.125C1563.7 50.125 1556.94 43.3673 1556.94 35.0312Z" fill="#FFD983"/>
<path fill-rule="evenodd" clip-rule="evenodd" d="M1580.85 43.8483C1581.36 43.3357 1582.19 43.3357 1582.7 43.8483L1590.68 51.8218C1591.19 52.3344 1591.19 53.1654 1590.68 53.678C1590.16 54.1905 1589.33 54.1905 1588.82 53.678L1580.85 45.7044C1580.33 45.1919 1580.33 44.3609 1580.85 43.8483Z" fill="#FFD983"/>
<line x1="1680" y1="27" x2="1627" y2="27" stroke="#FFD983" stroke-width="2"/>
<line x1="1680" y1="38" x2="1640" y2="38" stroke="#FFD983" stroke-width="2"/>
<line x1="1680" y1="49" x2="1640" y2="49" stroke="#FFD983" stroke-width="2"/>
<defs>
<clipPath id="clip0_1004_6534">
<rect width="69" height="74" fill="white"/>
</clipPath>
</defs>
</svg>
