<svg width="1920" height="1258" viewBox="0 0 1920 1258" fill="none" xmlns="http://www.w3.org/2000/svg">
<rect width="1920" height="1258" fill="#1E2E2C"/>
<path d="M1422.95 69.2H1429.85V142H1422.95V105H1383.85V142H1377.05V69.2H1383.85V103.2H1422.95V69.2ZM1441.13 106.2C1440.99 95.0667 1444.63 85.9 1452.03 78.7C1459.43 71.4333 1468.43 67.8667 1479.03 68C1489.36 67.8667 1498.09 71.3 1505.23 78.3C1512.36 85.2333 1515.86 94.1333 1515.73 105C1515.86 116.133 1512.23 125.333 1504.83 132.6C1497.43 139.8 1488.43 143.333 1477.83 143.2C1467.49 143.333 1458.73 139.933 1451.53 133C1444.39 126 1440.93 117.067 1441.13 106.2ZM1508.13 106C1508.13 95.4 1505.26 86.7 1499.53 79.9C1493.86 73.0333 1486.76 69.6 1478.23 69.6C1469.76 69.4667 1462.69 72.7667 1457.03 79.5C1451.43 86.2333 1448.66 94.8 1448.73 105.2C1448.66 115.8 1451.53 124.567 1457.33 131.5C1463.13 138.367 1470.29 141.733 1478.83 141.6C1487.16 141.733 1494.16 138.433 1499.83 131.7C1505.49 124.9 1508.26 116.333 1508.13 106ZM1598.06 142H1591.16L1584.86 74.8L1559.66 137.4H1559.26L1532.06 76.6L1529.06 110C1528.13 120.467 1527.66 129.167 1527.66 136.1C1527.66 139.167 1527.7 141.133 1527.76 142H1523.06C1524.53 134.067 1525.86 123.367 1527.06 109.9L1530.46 72.8L1528.96 69.5V69.2H1536.36L1561.86 126.7L1585.06 69.2H1591.26L1598.06 142ZM1653.16 137.2H1653.36L1651.66 142H1610.16V69.2H1650.26L1651.46 73.8H1651.26C1641.86 71.9333 1632.56 71 1623.36 71H1616.96V103.2H1622.76C1632.96 103.2 1640.06 102.833 1644.06 102.1H1644.26V106.3H1644.06C1639.72 105.433 1632.62 105 1622.76 105H1616.96V140.2H1623.46C1634.26 140.2 1644.16 139.2 1653.16 137.2Z" fill="white"/>
<path d="M1150.52 255.4L1173.92 282.2V291.5H1173.42L1145.52 259.5C1144.18 257.967 1142.28 257.2 1139.82 257.2H1131.12V290H1124.32V217.2H1139.22C1148.55 217.2 1155.65 218.767 1160.52 221.9C1165.38 225.033 1167.82 229.667 1167.82 235.8C1167.82 240.533 1166.35 244.467 1163.42 247.6C1160.48 250.667 1156.18 253.267 1150.52 255.4ZM1160.52 236.4C1160.52 230.867 1158.68 226.567 1155.02 223.5C1151.35 220.367 1146.05 218.8 1139.12 218.8H1131.12V254.9C1132.45 255.167 1134.05 255.333 1135.92 255.4C1138.72 255.533 1140.52 255.6 1141.32 255.6C1146.98 255.6 1151.58 253.767 1155.12 250.1C1158.72 246.367 1160.52 241.8 1160.52 236.4ZM1226.11 285.2H1226.31L1224.61 290H1183.11V217.2H1223.21L1224.41 221.8H1224.21C1214.81 219.933 1205.51 219 1196.31 219H1189.91V251.2H1195.71C1205.91 251.2 1213.01 250.833 1217.01 250.1H1217.21V254.3H1217.01C1212.67 253.433 1205.57 253 1195.71 253H1189.91V288.2H1196.41C1207.21 288.2 1217.11 287.2 1226.11 285.2ZM1279.95 290L1270.55 265.9H1240.25C1238.18 271.233 1236.65 275.8 1235.65 279.6C1234.58 283.4 1233.82 286.867 1233.35 290H1228.05C1230.12 285.2 1233.82 276.2 1239.15 263L1241.05 258.2L1257.75 215.9H1258.15L1287.35 290H1279.95ZM1240.95 264.1H1269.85L1255.35 227.2L1242.95 258.9L1240.95 264.1ZM1329.21 285H1329.41L1327.71 290H1295.31V217.2H1302.11V288.2H1304.41C1312.28 288.2 1320.55 287.133 1329.21 285ZM1399.74 285.2H1399.94L1398.24 290H1356.74V217.2H1396.84L1398.04 221.8H1397.84C1388.44 219.933 1379.14 219 1369.94 219H1363.54V251.2H1369.34C1379.54 251.2 1386.64 250.833 1390.64 250.1H1390.84V254.3H1390.64C1386.3 253.433 1379.2 253 1369.34 253H1363.54V288.2H1370.04C1380.84 288.2 1390.74 287.2 1399.74 285.2ZM1404.98 285.7L1406.48 280.8C1408.82 283.333 1412.08 285.467 1416.28 287.2C1420.48 288.8 1424.52 289.6 1428.38 289.6C1433.38 289.6 1437.52 288.2 1440.78 285.4C1444.05 282.6 1445.68 279 1445.68 274.6C1445.55 270.133 1444.22 266.667 1441.68 264.2C1439.15 261.733 1435.15 259.167 1429.68 256.5L1424.68 254.2C1420.68 252.267 1417.55 250.567 1415.28 249.1C1409.28 245.167 1406.28 240.167 1406.28 234.1C1406.28 228.833 1408.32 224.5 1412.38 221.1C1416.45 217.7 1421.68 216 1428.08 216C1435.42 216 1442.08 217.833 1448.08 221.5L1446.88 225.9C1441.02 220.367 1434.45 217.6 1427.18 217.6C1422.52 217.6 1418.78 218.833 1415.98 221.3C1413.25 223.767 1411.88 226.933 1411.88 230.8C1411.88 233.6 1412.58 236 1413.98 238C1415.32 239.867 1416.98 241.5 1418.98 242.9C1420.98 244.233 1423.88 245.8 1427.68 247.6L1432.68 249.9C1436.55 251.7 1439.82 253.5 1442.48 255.3C1448.22 259.033 1451.08 264.233 1451.08 270.9C1451.08 276.967 1448.82 281.867 1444.28 285.6C1439.75 289.333 1434.22 291.2 1427.68 291.2C1423.75 291.2 1419.75 290.667 1415.68 289.6C1411.42 288.467 1407.85 287.167 1404.98 285.7ZM1505.85 217.2L1507.15 222.1H1506.95C1499.55 220.033 1492.81 219 1486.75 219H1484.05V290H1477.15V219H1474.35C1468.35 219 1461.65 220.033 1454.25 222.1H1454.05L1455.25 217.2H1505.85ZM1549.77 290L1540.37 265.9H1510.07C1508.01 271.233 1506.47 275.8 1505.47 279.6C1504.41 283.4 1503.64 286.867 1503.17 290H1497.87C1499.94 285.2 1503.64 276.2 1508.97 263L1510.87 258.2L1527.57 215.9H1527.97L1557.17 290H1549.77ZM1510.77 264.1H1539.67L1525.17 227.2L1512.77 258.9L1510.77 264.1ZM1600.48 217.2L1601.78 222.1H1601.58C1594.18 220.033 1587.44 219 1581.38 219H1578.68V290H1571.78V219H1568.98C1562.98 219 1556.28 220.033 1548.88 222.1H1548.68L1549.88 217.2H1600.48ZM1653.16 285.2H1653.36L1651.66 290H1610.16V217.2H1650.26L1651.46 221.8H1651.26C1641.86 219.933 1632.56 219 1623.36 219H1616.96V251.2H1622.76C1632.96 251.2 1640.06 250.833 1644.06 250.1H1644.26V254.3H1644.06C1639.72 253.433 1632.62 253 1622.76 253H1616.96V288.2H1623.46C1634.26 288.2 1644.16 287.2 1653.16 285.2Z" fill="white"/>
<path d="M1114.78 433.2H1114.98L1113.28 438H1071.78V365.2H1111.88L1113.08 369.8H1112.88C1103.48 367.933 1094.18 367 1084.98 367H1078.58V399.2H1084.38C1094.58 399.2 1101.68 398.833 1105.68 398.1H1105.88V402.3H1105.68C1101.34 401.433 1094.24 401 1084.38 401H1078.58V436.2H1085.08C1095.88 436.2 1105.78 435.2 1114.78 433.2ZM1154.72 391.7L1150.22 398L1174.62 429.3V439.5H1174.22L1145.72 403.1L1138.82 412.7C1132.42 421.833 1127.72 430.267 1124.72 438H1117.32C1121.05 433.733 1127.72 424.933 1137.32 411.6L1144.42 401.5L1116.02 365.2H1124.62L1148.92 396.4L1153.12 390.6C1160.79 379.733 1165.79 371.267 1168.12 365.2H1174.62C1168.55 372.467 1161.92 381.3 1154.72 391.7ZM1227.48 385C1227.48 391.8 1224.92 397.233 1219.78 401.3C1214.72 405.367 1207.88 407.4 1199.28 407.4C1196.42 407.4 1193.58 407.2 1190.78 406.8V438H1183.98V365.2H1199.28C1208.48 365.2 1215.48 366.9 1220.28 370.3C1225.08 373.7 1227.48 378.6 1227.48 385ZM1219.98 386.2C1219.98 380.067 1218.18 375.3 1214.58 371.9C1210.98 368.5 1205.72 366.8 1198.78 366.8H1190.78V405C1192.92 405.533 1195.52 405.8 1198.58 405.8C1205.52 405.8 1210.82 404.1 1214.48 400.7C1218.15 397.3 1219.98 392.467 1219.98 386.2ZM1280.89 433.2H1281.09L1279.39 438H1237.89V365.2H1277.99L1279.19 369.8H1278.99C1269.59 367.933 1260.29 367 1251.09 367H1244.69V399.2H1250.49C1260.69 399.2 1267.79 398.833 1271.79 398.1H1271.99V402.3H1271.79C1267.46 401.433 1260.36 401 1250.49 401H1244.69V436.2H1251.19C1261.99 436.2 1271.89 435.2 1280.89 433.2ZM1316.43 403.4L1339.83 430.2V439.5H1339.33L1311.43 407.5C1310.1 405.967 1308.2 405.2 1305.73 405.2H1297.03V438H1290.23V365.2H1305.13C1314.47 365.2 1321.57 366.767 1326.43 369.9C1331.3 373.033 1333.73 377.667 1333.73 383.8C1333.73 388.533 1332.27 392.467 1329.33 395.6C1326.4 398.667 1322.1 401.267 1316.43 403.4ZM1326.43 384.4C1326.43 378.867 1324.6 374.567 1320.93 371.5C1317.27 368.367 1311.97 366.8 1305.03 366.8H1297.03V402.9C1298.37 403.167 1299.97 403.333 1301.83 403.4C1304.63 403.533 1306.43 403.6 1307.23 403.6C1312.9 403.6 1317.5 401.767 1321.03 398.1C1324.63 394.367 1326.43 389.8 1326.43 384.4ZM1349.02 438V365.2H1355.82V438H1349.02ZM1413.8 433.2H1414L1412.3 438H1370.8V365.2H1410.9L1412.1 369.8H1411.9C1402.5 367.933 1393.2 367 1384 367H1377.6V399.2H1383.4C1393.6 399.2 1400.7 398.833 1404.7 398.1H1404.9V402.3H1404.7C1400.37 401.433 1393.27 401 1383.4 401H1377.6V436.2H1384.1C1394.9 436.2 1404.8 435.2 1413.8 433.2ZM1468.44 365.2H1473.04C1472.18 372.6 1471.74 383.2 1471.74 397V439.2H1471.04L1425.74 373.9V406.2C1425.74 420.733 1426.18 431.333 1427.04 438H1422.44C1423.31 430.6 1423.74 420 1423.74 406.2V371L1419.94 365.5V365.2H1428.04L1469.74 425.8V397C1469.74 382.467 1469.31 371.867 1468.44 365.2ZM1483.32 402.1C1483.12 391.033 1486.58 381.9 1493.72 374.7C1500.85 367.433 1509.62 363.867 1520.02 364C1525.75 364 1530.98 365.033 1535.72 367.1C1540.45 369.167 1544.35 372.067 1547.42 375.8L1543.52 379.3C1537.32 370.167 1529.32 365.6 1519.52 365.6C1511.38 365.467 1504.55 368.733 1499.02 375.4C1493.55 382 1490.85 390.267 1490.92 400.2C1490.78 410.6 1493.65 419.167 1499.52 425.9C1505.38 432.567 1512.62 435.833 1521.22 435.7C1532.28 435.7 1540.95 430.833 1547.22 421.1L1548.42 421.8C1541.22 433.4 1531.15 439.2 1518.22 439.2C1508.08 439.2 1499.72 435.8 1493.12 429C1486.58 422.133 1483.32 413.167 1483.32 402.1ZM1600.23 433.2H1600.43L1598.73 438H1557.23V365.2H1597.33L1598.53 369.8H1598.33C1588.93 367.933 1579.63 367 1570.43 367H1564.03V399.2H1569.83C1580.03 399.2 1587.13 398.833 1591.13 398.1H1591.33V402.3H1591.13C1586.79 401.433 1579.69 401 1569.83 401H1564.03V436.2H1570.53C1581.33 436.2 1591.23 435.2 1600.23 433.2ZM1605.47 433.7L1606.97 428.8C1609.3 431.333 1612.57 433.467 1616.77 435.2C1620.97 436.8 1625 437.6 1628.87 437.6C1633.87 437.6 1638 436.2 1641.27 433.4C1644.54 430.6 1646.17 427 1646.17 422.6C1646.04 418.133 1644.7 414.667 1642.17 412.2C1639.64 409.733 1635.64 407.167 1630.17 404.5L1625.17 402.2C1621.17 400.267 1618.04 398.567 1615.77 397.1C1609.77 393.167 1606.77 388.167 1606.77 382.1C1606.77 376.833 1608.8 372.5 1612.87 369.1C1616.94 365.7 1622.17 364 1628.57 364C1635.9 364 1642.57 365.833 1648.57 369.5L1647.37 373.9C1641.5 368.367 1634.94 365.6 1627.67 365.6C1623 365.6 1619.27 366.833 1616.47 369.3C1613.74 371.767 1612.37 374.933 1612.37 378.8C1612.37 381.6 1613.07 384 1614.47 386C1615.8 387.867 1617.47 389.5 1619.47 390.9C1621.47 392.233 1624.37 393.8 1628.17 395.6L1633.17 397.9C1637.04 399.7 1640.3 401.5 1642.97 403.3C1648.7 407.033 1651.57 412.233 1651.57 418.9C1651.57 424.967 1649.3 429.867 1644.77 433.6C1640.24 437.333 1634.7 439.2 1628.17 439.2C1624.24 439.2 1620.24 438.667 1616.17 437.6C1611.9 436.467 1608.34 435.167 1605.47 433.7Z" fill="white"/>
<path d="M762.623 513.2H767.923C766.189 517.133 764.189 521.9 761.923 527.5C760.856 530.167 759.589 533.367 758.123 537.1L755.023 545L738.323 587.3H737.923L708.623 513.2H716.123L740.623 575.9L753.123 544.3C756.189 536.7 758.389 530.533 759.723 525.8C761.189 521 762.156 516.8 762.623 513.2ZM811.785 586L802.385 561.9H772.085C770.018 567.233 768.485 571.8 767.485 575.6C766.418 579.4 765.652 582.867 765.185 586H759.885C761.952 581.2 765.652 572.2 770.985 559L772.885 554.2L789.585 511.9H789.985L819.185 586H811.785ZM772.785 560.1H801.685L787.185 523.2L774.785 554.9L772.785 560.1ZM820.816 550.1C820.616 539.033 824.083 529.9 831.216 522.7C838.35 515.433 847.116 511.867 857.516 512C863.25 512 868.483 513.033 873.216 515.1C877.95 517.167 881.85 520.067 884.916 523.8L881.016 527.3C874.816 518.167 866.816 513.6 857.016 513.6C848.883 513.467 842.05 516.733 836.516 523.4C831.05 530 828.35 538.267 828.416 548.2C828.283 558.6 831.15 567.167 837.016 573.9C842.883 580.567 850.116 583.833 858.716 583.7C869.783 583.7 878.45 578.833 884.716 569.1L885.916 569.8C878.716 581.4 868.65 587.2 855.716 587.2C845.583 587.2 837.216 583.8 830.616 577C824.083 570.133 820.816 561.167 820.816 550.1ZM938.055 586L928.655 561.9H898.355C896.288 567.233 894.755 571.8 893.755 575.6C892.688 579.4 891.921 582.867 891.455 586H886.155C888.221 581.2 891.921 572.2 897.255 559L899.155 554.2L915.855 511.9H916.255L945.455 586H938.055ZM899.055 560.1H927.955L913.455 523.2L901.055 554.9L899.055 560.1ZM988.757 513.2L990.057 518.1H989.857C982.457 516.033 975.724 515 969.657 515H966.957V586H960.057V515H957.257C951.257 515 944.557 516.033 937.157 518.1H936.957L938.157 513.2H988.757ZM998.438 586V513.2H1005.24V586H998.438ZM1016.61 550.2C1016.48 539.067 1020.11 529.9 1027.51 522.7C1034.91 515.433 1043.91 511.867 1054.51 512C1064.85 511.867 1073.58 515.3 1080.71 522.3C1087.85 529.233 1091.35 538.133 1091.21 549C1091.35 560.133 1087.71 569.333 1080.31 576.6C1072.91 583.8 1063.91 587.333 1053.31 587.2C1042.98 587.333 1034.21 583.933 1027.01 577C1019.88 570 1016.41 561.067 1016.61 550.2ZM1083.61 550C1083.61 539.4 1080.75 530.7 1075.01 523.9C1069.35 517.033 1062.25 513.6 1053.71 513.6C1045.25 513.467 1038.18 516.767 1032.51 523.5C1026.91 530.233 1024.15 538.8 1024.21 549.2C1024.15 559.8 1027.01 568.567 1032.81 575.5C1038.61 582.367 1045.78 585.733 1054.31 585.6C1062.65 585.733 1069.65 582.433 1075.31 575.7C1080.98 568.9 1083.75 560.333 1083.61 550ZM1147.74 513.2H1152.34C1151.47 520.6 1151.04 531.2 1151.04 545V587.2H1150.34L1105.04 521.9V554.2C1105.04 568.733 1105.47 579.333 1106.34 586H1101.74C1102.61 578.6 1103.04 568 1103.04 554.2V519L1099.24 513.5V513.2H1107.34L1149.04 573.8V545C1149.04 530.467 1148.61 519.867 1147.74 513.2ZM1210.71 586L1201.31 561.9H1171.01C1168.94 567.233 1167.41 571.8 1166.41 575.6C1165.34 579.4 1164.58 582.867 1164.11 586H1158.81C1160.88 581.2 1164.58 572.2 1169.91 559L1171.81 554.2L1188.51 511.9H1188.91L1218.11 586H1210.71ZM1171.71 560.1H1200.61L1186.11 523.2L1173.71 554.9L1171.71 560.1ZM1259.97 581H1260.17L1258.47 586H1226.07V513.2H1232.87V584.2H1235.17C1243.04 584.2 1251.31 583.133 1259.97 581ZM1313.7 551.4L1337.1 578.2V587.5H1336.6L1308.7 555.5C1307.37 553.967 1305.47 553.2 1303 553.2H1294.3V586H1287.5V513.2H1302.4C1311.73 513.2 1318.83 514.767 1323.7 517.9C1328.57 521.033 1331 525.667 1331 531.8C1331 536.533 1329.53 540.467 1326.6 543.6C1323.67 546.667 1319.37 549.267 1313.7 551.4ZM1323.7 532.4C1323.7 526.867 1321.87 522.567 1318.2 519.5C1314.53 516.367 1309.23 514.8 1302.3 514.8H1294.3V550.9C1295.63 551.167 1297.23 551.333 1299.1 551.4C1301.9 551.533 1303.7 551.6 1304.5 551.6C1310.17 551.6 1314.77 549.767 1318.3 546.1C1321.9 542.367 1323.7 537.8 1323.7 532.4ZM1389.29 581.2H1389.49L1387.79 586H1346.29V513.2H1386.39L1387.59 517.8H1387.39C1377.99 515.933 1368.69 515 1359.49 515H1353.09V547.2H1358.89C1369.09 547.2 1376.19 546.833 1380.19 546.1H1380.39V550.3H1380.19C1375.86 549.433 1368.76 549 1358.89 549H1353.09V584.2H1359.59C1370.39 584.2 1380.29 583.2 1389.29 581.2ZM1443.93 513.2H1448.53C1447.67 520.6 1447.23 531.2 1447.23 545V587.2H1446.53L1401.23 521.9V554.2C1401.23 568.733 1401.67 579.333 1402.53 586H1397.93C1398.8 578.6 1399.23 568 1399.23 554.2V519L1395.43 513.5V513.2H1403.53L1445.23 573.8V545C1445.23 530.467 1444.8 519.867 1443.93 513.2ZM1507.7 513.2L1509 518.1H1508.8C1501.4 516.033 1494.67 515 1488.6 515H1485.9V586H1479V515H1476.2C1470.2 515 1463.5 516.033 1456.1 518.1H1455.9L1457.1 513.2H1507.7ZM1551.63 586L1542.23 561.9H1511.93C1509.86 567.233 1508.33 571.8 1507.33 575.6C1506.26 579.4 1505.5 582.867 1505.03 586H1499.73C1501.8 581.2 1505.5 572.2 1510.83 559L1512.73 554.2L1529.43 511.9H1529.83L1559.03 586H1551.63ZM1512.63 560.1H1541.53L1527.03 523.2L1514.63 554.9L1512.63 560.1ZM1600.89 581H1601.09L1599.39 586H1566.99V513.2H1573.79V584.2H1576.09C1583.96 584.2 1592.23 583.133 1600.89 581ZM1605.47 581.7L1606.97 576.8C1609.3 579.333 1612.57 581.467 1616.77 583.2C1620.97 584.8 1625 585.6 1628.87 585.6C1633.87 585.6 1638 584.2 1641.27 581.4C1644.54 578.6 1646.17 575 1646.17 570.6C1646.04 566.133 1644.7 562.667 1642.17 560.2C1639.64 557.733 1635.64 555.167 1630.17 552.5L1625.17 550.2C1621.17 548.267 1618.04 546.567 1615.77 545.1C1609.77 541.167 1606.77 536.167 1606.77 530.1C1606.77 524.833 1608.8 520.5 1612.87 517.1C1616.94 513.7 1622.17 512 1628.57 512C1635.9 512 1642.57 513.833 1648.57 517.5L1647.37 521.9C1641.5 516.367 1634.94 513.6 1627.67 513.6C1623 513.6 1619.27 514.833 1616.47 517.3C1613.74 519.767 1612.37 522.933 1612.37 526.8C1612.37 529.6 1613.07 532 1614.47 534C1615.8 535.867 1617.47 537.5 1619.47 538.9C1621.47 540.233 1624.37 541.8 1628.17 543.6L1633.17 545.9C1637.04 547.7 1640.3 549.5 1642.97 551.3C1648.7 555.033 1651.57 560.233 1651.57 566.9C1651.57 572.967 1649.3 577.867 1644.77 581.6C1640.24 585.333 1634.7 587.2 1628.17 587.2C1624.24 587.2 1620.24 586.667 1616.17 585.6C1611.9 584.467 1608.34 583.167 1605.47 581.7Z" fill="white"/>
<path d="M1243.62 734L1234.22 709.9H1203.92C1201.85 715.233 1200.32 719.8 1199.32 723.6C1198.25 727.4 1197.49 730.867 1197.02 734H1191.72C1193.79 729.2 1197.49 720.2 1202.82 707L1204.72 702.2L1221.42 659.9H1221.82L1251.02 734H1243.62ZM1204.62 708.1H1233.52L1219.02 671.2L1206.62 702.9L1204.62 708.1ZM1330.48 734H1323.58L1317.28 666.8L1292.08 729.4H1291.68L1264.48 668.6L1261.48 702C1260.55 712.467 1260.08 721.167 1260.08 728.1C1260.08 731.167 1260.12 733.133 1260.18 734H1255.48C1256.95 726.067 1258.28 715.367 1259.48 701.9L1262.88 664.8L1261.38 661.5V661.2H1268.78L1294.28 718.7L1317.48 661.2H1323.68L1330.48 734ZM1385.58 729.2H1385.78L1384.08 734H1342.58V661.2H1382.68L1383.88 665.8H1383.68C1374.28 663.933 1364.98 663 1355.78 663H1349.38V695.2H1355.18C1365.38 695.2 1372.48 694.833 1376.48 694.1H1376.68V698.3H1376.48C1372.14 697.433 1365.04 697 1355.18 697H1349.38V732.2H1355.88C1366.68 732.2 1376.58 731.2 1385.58 729.2ZM1440.22 661.2H1444.82C1443.96 668.6 1443.52 679.2 1443.52 693V735.2H1442.82L1397.52 669.9V702.2C1397.52 716.733 1397.96 727.333 1398.82 734H1394.22C1395.09 726.6 1395.52 716 1395.52 702.2V667L1391.72 661.5V661.2H1399.82L1441.52 721.8V693C1441.52 678.467 1441.09 667.867 1440.22 661.2ZM1458.69 734V661.2H1465.49V734H1458.69ZM1525.77 661.2L1527.07 666.1H1526.87C1519.47 664.033 1512.74 663 1506.67 663H1503.97V734H1497.07V663H1494.27C1488.27 663 1481.57 664.033 1474.17 666.1H1473.97L1475.17 661.2H1525.77ZM1535.45 734V661.2H1542.25V734H1535.45ZM1600.23 729.2H1600.43L1598.73 734H1557.23V661.2H1597.33L1598.53 665.8H1598.33C1588.93 663.933 1579.63 663 1570.43 663H1564.03V695.2H1569.83C1580.03 695.2 1587.13 694.833 1591.13 694.1H1591.33V698.3H1591.13C1586.79 697.433 1579.69 697 1569.83 697H1564.03V732.2H1570.53C1581.33 732.2 1591.23 731.2 1600.23 729.2ZM1605.47 729.7L1606.97 724.8C1609.3 727.333 1612.57 729.467 1616.77 731.2C1620.97 732.8 1625 733.6 1628.87 733.6C1633.87 733.6 1638 732.2 1641.27 729.4C1644.54 726.6 1646.17 723 1646.17 718.6C1646.04 714.133 1644.7 710.667 1642.17 708.2C1639.64 705.733 1635.64 703.167 1630.17 700.5L1625.17 698.2C1621.17 696.267 1618.04 694.567 1615.77 693.1C1609.77 689.167 1606.77 684.167 1606.77 678.1C1606.77 672.833 1608.8 668.5 1612.87 665.1C1616.94 661.7 1622.17 660 1628.57 660C1635.9 660 1642.57 661.833 1648.57 665.5L1647.37 669.9C1641.5 664.367 1634.94 661.6 1627.67 661.6C1623 661.6 1619.27 662.833 1616.47 665.3C1613.74 667.767 1612.37 670.933 1612.37 674.8C1612.37 677.6 1613.07 680 1614.47 682C1615.8 683.867 1617.47 685.5 1619.47 686.9C1621.47 688.233 1624.37 689.8 1628.17 691.6L1633.17 693.9C1637.04 695.7 1640.3 697.5 1642.97 699.3C1648.7 703.033 1651.57 708.233 1651.57 714.9C1651.57 720.967 1649.3 725.867 1644.77 729.6C1640.24 733.333 1634.7 735.2 1628.17 735.2C1624.24 735.2 1620.24 734.667 1616.17 733.6C1611.9 732.467 1608.34 731.167 1605.47 729.7Z" fill="white"/>
<path d="M911.492 882L902.092 857.9H871.792C869.726 863.233 868.192 867.8 867.192 871.6C866.126 875.4 865.359 878.867 864.892 882H859.592C861.659 877.2 865.359 868.2 870.692 855L872.592 850.2L889.292 807.9H889.692L918.892 882H911.492ZM872.492 856.1H901.392L886.892 819.2L874.492 850.9L872.492 856.1ZM977.255 862.1C977.255 868.3 974.622 873.167 969.355 876.7C964.089 880.233 956.689 882 947.155 882H926.855V809.2H948.055C956.055 809.2 962.122 810.733 966.255 813.8C970.455 816.8 972.555 821.033 972.555 826.5C972.555 830.967 970.989 834.7 967.855 837.7C964.722 840.633 960.955 842.6 956.555 843.6V843.8C962.489 844.2 967.422 846.067 971.355 849.4C975.289 852.733 977.255 856.967 977.255 862.1ZM946.655 810.8H933.655V843.7H948.355C953.555 843.7 957.655 842.167 960.655 839.1C963.722 836.033 965.255 832.1 965.255 827.3C965.255 822.367 963.622 818.4 960.355 815.4C957.089 812.333 952.522 810.8 946.655 810.8ZM969.655 863.4C969.655 857.933 967.889 853.567 964.355 850.3C960.889 846.967 956.189 845.3 950.255 845.3H933.655V879.7C934.855 879.967 936.589 880.133 938.855 880.2C942.189 880.333 944.389 880.4 945.455 880.4C961.589 880.4 969.655 874.733 969.655 863.4ZM984.388 846.2C984.255 835.067 987.888 825.9 995.288 818.7C1002.69 811.433 1011.69 807.867 1022.29 808C1032.62 807.867 1041.35 811.3 1048.49 818.3C1055.62 825.233 1059.12 834.133 1058.99 845C1059.12 856.133 1055.49 865.333 1048.09 872.6C1040.69 879.8 1031.69 883.333 1021.09 883.2C1010.75 883.333 1001.99 879.933 994.788 873C987.655 866 984.188 857.067 984.388 846.2ZM1051.39 846C1051.39 835.4 1048.52 826.7 1042.79 819.9C1037.12 813.033 1030.02 809.6 1021.49 809.6C1013.02 809.467 1005.95 812.767 1000.29 819.5C994.688 826.233 991.922 834.8 991.988 845.2C991.922 855.8 994.788 864.567 1000.59 871.5C1006.39 878.367 1013.55 881.733 1022.09 881.6C1030.42 881.733 1037.42 878.433 1043.09 871.7C1048.75 864.9 1051.52 856.333 1051.39 846ZM1069.81 857.9V809.2H1076.71V857.5C1076.71 865.033 1078.44 870.767 1081.91 874.7C1085.38 878.567 1090.51 880.5 1097.31 880.5C1103.98 880.5 1109.08 878.6 1112.61 874.8C1116.14 870.933 1117.91 865.333 1117.91 858V841C1117.91 826.467 1117.48 815.867 1116.61 809.2H1121.31C1120.38 817 1119.91 827.6 1119.91 841V857.5C1119.91 874.633 1111.61 883.2 1095.01 883.2C1086.81 883.2 1080.54 881.033 1076.21 876.7C1071.94 872.367 1069.81 866.1 1069.81 857.9ZM1179.97 809.2L1181.27 814.1H1181.07C1173.67 812.033 1166.93 811 1160.87 811H1158.17V882H1151.27V811H1148.47C1142.47 811 1135.77 812.033 1128.37 814.1H1128.17L1129.37 809.2H1179.97ZM1252.37 809.2H1257.67C1255.94 813.133 1253.94 817.9 1251.67 823.5C1250.6 826.167 1249.34 829.367 1247.87 833.1L1244.77 841L1228.07 883.3H1227.67L1198.37 809.2H1205.87L1230.37 871.9L1242.87 840.3C1245.94 832.7 1248.14 826.533 1249.47 821.8C1250.94 817 1251.9 812.8 1252.37 809.2ZM1308.33 877.2H1308.53L1306.83 882H1265.33V809.2H1305.43L1306.63 813.8H1306.43C1297.03 811.933 1287.73 811 1278.53 811H1272.13V843.2H1277.93C1288.13 843.2 1295.23 842.833 1299.23 842.1H1299.43V846.3H1299.23C1294.9 845.433 1287.8 845 1277.93 845H1272.13V880.2H1278.63C1289.43 880.2 1299.33 879.2 1308.33 877.2ZM1362.98 809.2H1367.58C1366.71 816.6 1366.28 827.2 1366.28 841V883.2H1365.58L1320.28 817.9V850.2C1320.28 864.733 1320.71 875.333 1321.58 882H1316.98C1317.84 874.6 1318.28 864 1318.28 850.2V815L1314.48 809.5V809.2H1322.58L1364.28 869.8V841C1364.28 826.467 1363.84 815.867 1362.98 809.2ZM1426.75 809.2L1428.05 814.1H1427.85C1420.45 812.033 1413.71 811 1407.65 811H1404.95V882H1398.05V811H1395.25C1389.25 811 1382.55 812.033 1375.15 814.1H1374.95L1376.15 809.2H1426.75ZM1470.67 882L1461.27 857.9H1430.97C1428.91 863.233 1427.37 867.8 1426.37 871.6C1425.31 875.4 1424.54 878.867 1424.07 882H1418.77C1420.84 877.2 1424.54 868.2 1429.87 855L1431.77 850.2L1448.47 807.9H1448.87L1478.07 882H1470.67ZM1431.67 856.1H1460.57L1446.07 819.2L1433.67 850.9L1431.67 856.1ZM1531.24 809.2H1535.84C1534.97 816.6 1534.54 827.2 1534.54 841V883.2H1533.84L1488.54 817.9V850.2C1488.54 864.733 1488.97 875.333 1489.84 882H1485.24C1486.1 874.6 1486.54 864 1486.54 850.2V815L1482.74 809.5V809.2H1490.84L1532.54 869.8V841C1532.54 826.467 1532.1 815.867 1531.24 809.2ZM1594.21 882L1584.81 857.9H1554.51C1552.44 863.233 1550.91 867.8 1549.91 871.6C1548.84 875.4 1548.07 878.867 1547.61 882H1542.31C1544.37 877.2 1548.07 868.2 1553.41 855L1555.31 850.2L1572.01 807.9H1572.41L1601.61 882H1594.21ZM1555.21 856.1H1584.11L1569.61 819.2L1557.21 850.9L1555.21 856.1ZM1605.47 877.7L1606.97 872.8C1609.3 875.333 1612.57 877.467 1616.77 879.2C1620.97 880.8 1625 881.6 1628.87 881.6C1633.87 881.6 1638 880.2 1641.27 877.4C1644.54 874.6 1646.17 871 1646.17 866.6C1646.04 862.133 1644.7 858.667 1642.17 856.2C1639.64 853.733 1635.64 851.167 1630.17 848.5L1625.17 846.2C1621.17 844.267 1618.04 842.567 1615.77 841.1C1609.77 837.167 1606.77 832.167 1606.77 826.1C1606.77 820.833 1608.8 816.5 1612.87 813.1C1616.94 809.7 1622.17 808 1628.57 808C1635.9 808 1642.57 809.833 1648.57 813.5L1647.37 817.9C1641.5 812.367 1634.94 809.6 1627.67 809.6C1623 809.6 1619.27 810.833 1616.47 813.3C1613.74 815.767 1612.37 818.933 1612.37 822.8C1612.37 825.6 1613.07 828 1614.47 830C1615.8 831.867 1617.47 833.5 1619.47 834.9C1621.47 836.233 1624.37 837.8 1628.17 839.6L1633.17 841.9C1637.04 843.7 1640.3 845.5 1642.97 847.3C1648.7 851.033 1651.57 856.233 1651.57 862.9C1651.57 868.967 1649.3 873.867 1644.77 877.6C1640.24 881.333 1634.7 883.2 1628.17 883.2C1624.24 883.2 1620.24 882.667 1616.17 881.6C1611.9 880.467 1608.34 879.167 1605.47 877.7Z" fill="white"/>
<path d="M815.138 957.2H822.038V1030H815.138V993H776.038V1030H769.238V957.2H776.038V991.2H815.138V957.2ZM833.314 994.2C833.181 983.067 836.814 973.9 844.214 966.7C851.614 959.433 860.614 955.867 871.214 956C881.547 955.867 890.281 959.3 897.414 966.3C904.547 973.233 908.047 982.133 907.914 993C908.047 1004.13 904.414 1013.33 897.014 1020.6C889.614 1027.8 880.614 1031.33 870.014 1031.2C859.681 1031.33 850.914 1027.93 843.714 1021C836.581 1014 833.114 1005.07 833.314 994.2ZM900.314 994C900.314 983.4 897.447 974.7 891.714 967.9C886.047 961.033 878.947 957.6 870.414 957.6C861.947 957.467 854.881 960.767 849.214 967.5C843.614 974.233 840.847 982.8 840.914 993.2C840.847 1003.8 843.714 1012.57 849.514 1019.5C855.314 1026.37 862.481 1029.73 871.014 1029.6C879.347 1029.73 886.347 1026.43 892.014 1019.7C897.681 1012.9 900.447 1004.33 900.314 994ZM997.99 957.2H1002.99C1000.79 963 997.59 972.167 993.39 984.7L991.89 989.1L977.59 1031.3H977.19L956.69 970L935.79 1031.3H935.39L910.39 957.2H917.69L938.19 1018.5L959.09 957.2H959.49L979.99 1018.4L989.99 988.5C993.99 976.9 996.657 966.467 997.99 957.2ZM1072.55 957.2L1073.85 962.1H1073.65C1066.25 960.033 1059.51 959 1053.45 959H1050.75V1030H1043.85V959H1041.05C1035.05 959 1028.35 960.033 1020.95 962.1H1020.75L1021.95 957.2H1072.55ZM1071.5 994.2C1071.36 983.067 1075 973.9 1082.4 966.7C1089.8 959.433 1098.8 955.867 1109.4 956C1119.73 955.867 1128.46 959.3 1135.6 966.3C1142.73 973.233 1146.23 982.133 1146.1 993C1146.23 1004.13 1142.6 1013.33 1135.2 1020.6C1127.8 1027.8 1118.8 1031.33 1108.2 1031.2C1097.86 1031.33 1089.1 1027.93 1081.9 1021C1074.76 1014 1071.3 1005.07 1071.5 994.2ZM1138.5 994C1138.5 983.4 1135.63 974.7 1129.9 967.9C1124.23 961.033 1117.13 957.6 1108.6 957.6C1100.13 957.467 1093.06 960.767 1087.4 967.5C1081.8 974.233 1079.03 982.8 1079.1 993.2C1079.03 1003.8 1081.9 1012.57 1087.7 1019.5C1093.5 1026.37 1100.66 1029.73 1109.2 1029.6C1117.53 1029.73 1124.53 1026.43 1130.2 1019.7C1135.86 1012.9 1138.63 1004.33 1138.5 994ZM1215.71 997H1241.61V1021.6C1233.34 1028 1223.84 1031.2 1213.11 1031.2C1201.84 1031.2 1192.74 1027.83 1185.81 1021.1C1178.87 1014.37 1175.41 1005.37 1175.41 994.1C1175.27 982.967 1178.81 973.8 1186.01 966.6C1193.27 959.4 1202.24 955.867 1212.91 956C1218.44 956 1223.57 957.067 1228.31 959.2C1233.11 961.267 1237.01 964.133 1240.01 967.8L1236.01 971.3C1229.87 962.167 1221.84 957.6 1211.91 957.6C1203.44 957.6 1196.51 960.9 1191.11 967.5C1185.71 974.033 1183.01 982.667 1183.01 993.4C1182.87 1003.87 1185.71 1012.53 1191.51 1019.4C1197.31 1026.2 1204.71 1029.53 1213.71 1029.4C1222.17 1029.4 1229.27 1026.87 1235.01 1021.8V998.8H1216.81L1215.71 997ZM1296.42 1025.2H1296.62L1294.92 1030H1253.42V957.2H1293.52L1294.72 961.8H1294.52C1285.12 959.933 1275.82 959 1266.62 959H1260.22V991.2H1266.02C1276.22 991.2 1283.32 990.833 1287.32 990.1H1287.52V994.3H1287.32C1282.98 993.433 1275.88 993 1266.02 993H1260.22V1028.2H1266.72C1277.52 1028.2 1287.42 1027.2 1296.42 1025.2ZM1350.57 957.2L1351.87 962.1H1351.67C1344.27 960.033 1337.54 959 1331.47 959H1328.77V1030H1321.87V959H1319.07C1313.07 959 1306.37 960.033 1298.97 962.1H1298.77L1299.97 957.2H1350.57ZM1421.67 957.2L1422.97 962.1H1422.77C1415.37 960.033 1408.63 959 1402.57 959H1399.87V1030H1392.97V959H1390.17C1384.17 959 1377.47 960.033 1370.07 962.1H1369.87L1371.07 957.2H1421.67ZM1477.25 957.2H1484.15V1030H1477.25V993H1438.15V1030H1431.35V957.2H1438.15V991.2H1477.25V957.2ZM1542.02 1025.2H1542.22L1540.52 1030H1499.02V957.2H1539.12L1540.32 961.8H1540.12C1530.72 959.933 1521.42 959 1512.22 959H1505.82V991.2H1511.62C1521.82 991.2 1528.92 990.833 1532.92 990.1H1533.12V994.3H1532.92C1528.59 993.433 1521.49 993 1511.62 993H1505.82V1028.2H1512.32C1523.12 1028.2 1533.02 1027.2 1542.02 1025.2ZM1577.57 995.4L1600.97 1022.2V1031.5H1600.47L1572.57 999.5C1571.23 997.967 1569.33 997.2 1566.87 997.2H1558.17V1030H1551.37V957.2H1566.27C1575.6 957.2 1582.7 958.767 1587.57 961.9C1592.43 965.033 1594.87 969.667 1594.87 975.8C1594.87 980.533 1593.4 984.467 1590.47 987.6C1587.53 990.667 1583.23 993.267 1577.57 995.4ZM1587.57 976.4C1587.57 970.867 1585.73 966.567 1582.07 963.5C1578.4 960.367 1573.1 958.8 1566.17 958.8H1558.17V994.9C1559.5 995.167 1561.1 995.333 1562.97 995.4C1565.77 995.533 1567.57 995.6 1568.37 995.6C1574.03 995.6 1578.63 993.767 1582.17 990.1C1585.77 986.367 1587.57 981.8 1587.57 976.4ZM1653.16 1025.2H1653.36L1651.66 1030H1610.16V957.2H1650.26L1651.46 961.8H1651.26C1641.86 959.933 1632.56 959 1623.36 959H1616.96V991.2H1622.76C1632.96 991.2 1640.06 990.833 1644.06 990.1H1644.26V994.3H1644.06C1639.72 993.433 1632.62 993 1622.76 993H1616.96V1028.2H1623.46C1634.26 1028.2 1644.16 1027.2 1653.16 1025.2Z" fill="white"/>
<path d="M1081.75 1142.1C1081.55 1131.03 1085.02 1121.9 1092.15 1114.7C1099.29 1107.43 1108.05 1103.87 1118.45 1104C1124.19 1104 1129.42 1105.03 1134.15 1107.1C1138.89 1109.17 1142.79 1112.07 1145.85 1115.8L1141.95 1119.3C1135.75 1110.17 1127.75 1105.6 1117.95 1105.6C1109.82 1105.47 1102.99 1108.73 1097.45 1115.4C1091.99 1122 1089.29 1130.27 1089.35 1140.2C1089.22 1150.6 1092.09 1159.17 1097.95 1165.9C1103.82 1172.57 1111.05 1175.83 1119.65 1175.7C1130.72 1175.7 1139.39 1170.83 1145.65 1161.1L1146.85 1161.8C1139.65 1173.4 1129.59 1179.2 1116.65 1179.2C1106.52 1179.2 1098.15 1175.8 1091.55 1169C1085.02 1162.13 1081.75 1153.17 1081.75 1142.1ZM1151.09 1142.2C1150.95 1131.07 1154.59 1121.9 1161.99 1114.7C1169.39 1107.43 1178.39 1103.87 1188.99 1104C1199.32 1103.87 1208.05 1107.3 1215.19 1114.3C1222.32 1121.23 1225.82 1130.13 1225.69 1141C1225.82 1152.13 1222.19 1161.33 1214.79 1168.6C1207.39 1175.8 1198.39 1179.33 1187.79 1179.2C1177.45 1179.33 1168.69 1175.93 1161.49 1169C1154.35 1162 1150.89 1153.07 1151.09 1142.2ZM1218.09 1142C1218.09 1131.4 1215.22 1122.7 1209.49 1115.9C1203.82 1109.03 1196.72 1105.6 1188.19 1105.6C1179.72 1105.47 1172.65 1108.77 1166.99 1115.5C1161.39 1122.23 1158.62 1130.8 1158.69 1141.2C1158.62 1151.8 1161.49 1160.57 1167.29 1167.5C1173.09 1174.37 1180.25 1177.73 1188.79 1177.6C1197.12 1177.73 1204.12 1174.43 1209.79 1167.7C1215.45 1160.9 1218.22 1152.33 1218.09 1142ZM1282.21 1105.2H1286.81C1285.95 1112.6 1285.51 1123.2 1285.51 1137V1179.2H1284.81L1239.51 1113.9V1146.2C1239.51 1160.73 1239.95 1171.33 1240.81 1178H1236.21C1237.08 1170.6 1237.51 1160 1237.51 1146.2V1111L1233.71 1105.5V1105.2H1241.81L1283.51 1165.8V1137C1283.51 1122.47 1283.08 1111.87 1282.21 1105.2ZM1345.98 1105.2L1347.28 1110.1H1347.08C1339.68 1108.03 1332.95 1107 1326.88 1107H1324.18V1178H1317.28V1107H1314.48C1308.48 1107 1301.78 1108.03 1294.38 1110.1H1294.18L1295.38 1105.2H1345.98ZM1389.91 1178L1380.51 1153.9H1350.21C1348.14 1159.23 1346.61 1163.8 1345.61 1167.6C1344.54 1171.4 1343.78 1174.87 1343.31 1178H1338.01C1340.08 1173.2 1343.78 1164.2 1349.11 1151L1351.01 1146.2L1367.71 1103.9H1368.11L1397.31 1178H1389.91ZM1350.91 1152.1H1379.81L1365.31 1115.2L1352.91 1146.9L1350.91 1152.1ZM1398.94 1142.1C1398.74 1131.03 1402.21 1121.9 1409.34 1114.7C1416.47 1107.43 1425.24 1103.87 1435.64 1104C1441.37 1104 1446.61 1105.03 1451.34 1107.1C1456.07 1109.17 1459.97 1112.07 1463.04 1115.8L1459.14 1119.3C1452.94 1110.17 1444.94 1105.6 1435.14 1105.6C1427.01 1105.47 1420.17 1108.73 1414.64 1115.4C1409.17 1122 1406.47 1130.27 1406.54 1140.2C1406.41 1150.6 1409.27 1159.17 1415.14 1165.9C1421.01 1172.57 1428.24 1175.83 1436.84 1175.7C1447.91 1175.7 1456.57 1170.83 1462.84 1161.1L1464.04 1161.8C1456.84 1173.4 1446.77 1179.2 1433.84 1179.2C1423.71 1179.2 1415.34 1175.8 1408.74 1169C1402.21 1162.13 1398.94 1153.17 1398.94 1142.1ZM1516.88 1105.2L1518.18 1110.1H1517.98C1510.58 1108.03 1503.85 1107 1497.78 1107H1495.08V1178H1488.18V1107H1485.38C1479.38 1107 1472.68 1108.03 1465.28 1110.1H1465.08L1466.28 1105.2H1516.88ZM1544.71 1153.9V1105.2H1551.61V1153.5C1551.61 1161.03 1553.35 1166.77 1556.81 1170.7C1560.28 1174.57 1565.41 1176.5 1572.21 1176.5C1578.88 1176.5 1583.98 1174.6 1587.51 1170.8C1591.05 1166.93 1592.81 1161.33 1592.81 1154V1137C1592.81 1122.47 1592.38 1111.87 1591.51 1105.2H1596.21C1595.28 1113 1594.81 1123.6 1594.81 1137V1153.5C1594.81 1170.63 1586.51 1179.2 1569.91 1179.2C1561.71 1179.2 1555.45 1177.03 1551.11 1172.7C1546.85 1168.37 1544.71 1162.1 1544.71 1153.9ZM1605.47 1173.7L1606.97 1168.8C1609.3 1171.33 1612.57 1173.47 1616.77 1175.2C1620.97 1176.8 1625 1177.6 1628.87 1177.6C1633.87 1177.6 1638 1176.2 1641.27 1173.4C1644.54 1170.6 1646.17 1167 1646.17 1162.6C1646.04 1158.13 1644.7 1154.67 1642.17 1152.2C1639.64 1149.73 1635.64 1147.17 1630.17 1144.5L1625.17 1142.2C1621.17 1140.27 1618.04 1138.57 1615.77 1137.1C1609.77 1133.17 1606.77 1128.17 1606.77 1122.1C1606.77 1116.83 1608.8 1112.5 1612.87 1109.1C1616.94 1105.7 1622.17 1104 1628.57 1104C1635.9 1104 1642.57 1105.83 1648.57 1109.5L1647.37 1113.9C1641.5 1108.37 1634.94 1105.6 1627.67 1105.6C1623 1105.6 1619.27 1106.83 1616.47 1109.3C1613.74 1111.77 1612.37 1114.93 1612.37 1118.8C1612.37 1121.6 1613.07 1124 1614.47 1126C1615.8 1127.87 1617.47 1129.5 1619.47 1130.9C1621.47 1132.23 1624.37 1133.8 1628.17 1135.6L1633.17 1137.9C1637.04 1139.7 1640.3 1141.5 1642.97 1143.3C1648.7 1147.03 1651.57 1152.23 1651.57 1158.9C1651.57 1164.97 1649.3 1169.87 1644.77 1173.6C1640.24 1177.33 1634.7 1179.2 1628.17 1179.2C1624.24 1179.2 1620.24 1178.67 1616.17 1177.6C1611.9 1176.47 1608.34 1175.17 1605.47 1173.7Z" fill="white"/>
<path d="M1800 66L1775 91" stroke="#FFD983" stroke-width="2" stroke-linecap="square" stroke-linejoin="round"/>
<path d="M1800 91L1775 66" stroke="#FFD983" stroke-width="2" stroke-linecap="square" stroke-linejoin="round"/>
<g clip-path="url(#clip0_540_8227)">
<path d="M138.894 46.3583V66.0842C138.894 67.1231 137.948 67.9127 136.904 67.7327L122.892 65.3777C121.862 65.2115 121.241 64.1864 121.552 63.2029C123.979 55.4316 129.327 48.921 136.34 44.8899C137.468 44.2388 138.894 45.07 138.894 46.3583Z" fill="white"/>
<path d="M177.909 51.2067L172.505 71.1542C172.109 72.6226 170.628 73.5646 169.09 73.3014L142.774 68.8824C141.335 68.6469 140.276 67.4141 140.276 65.9734V45.1116C140.276 43.8925 141.038 42.8121 142.195 42.3549C146.062 40.8311 150.295 40 154.725 40C163.234 40 171.023 43.0891 176.963 48.2007C177.838 48.9487 178.219 50.1123 177.909 51.2067Z" fill="white"/>
<path d="M138.894 71.3344V95.9503C138.894 96.8923 138.146 97.668 137.201 97.7234L121.933 98.7069C120.889 98.7762 120 97.9589 120 96.9338V74.4651C120 72.4565 120.183 70.4756 120.55 68.5639C120.734 67.5942 121.665 66.9432 122.653 67.1094L137.398 69.589C138.259 69.7275 138.894 70.4617 138.894 71.3344Z" fill="white"/>
<path d="M138.894 101.505V111.784C138.894 113.016 137.878 114.014 136.622 114.014H121.891C120.847 114 120 113.169 120 112.144V102.433C120 101.256 120.931 100.286 122.117 100.217L136.467 99.2886C137.779 99.1916 138.894 100.217 138.894 101.505Z" fill="white"/>
<path d="M164.787 99.7733L161.287 112.684C161.076 113.46 160.37 114 159.552 114H142.083C141.095 114 140.291 113.21 140.291 112.241V100.674C140.291 99.7456 141.025 98.9699 141.97 98.9144L162.938 97.5708C164.166 97.4876 165.111 98.6097 164.787 99.7733Z" fill="white"/>
<path d="M187.208 95.9917C188.168 95.9224 188.986 96.6843 188.986 97.6263V111.894C188.986 113.058 188.026 114.014 186.841 114.014H164.391C163.291 114.014 162.487 112.989 162.769 111.95L166.423 98.4713C166.607 97.7925 167.214 97.2938 167.933 97.2523L187.208 95.9917Z" fill="white"/>
<path d="M189 79.1056V93.4153C189 94.1633 188.408 94.7867 187.646 94.8421L169.02 96.0472C168.032 96.1165 167.256 95.2022 167.524 94.2603L172.364 76.4183C172.562 75.6979 173.281 75.2547 174.015 75.3793L187.801 77.7065C188.492 77.8174 189 78.413 189 79.1056Z" fill="white"/>
<path d="M189 73.0245V74.7422C189 75.5179 188.294 76.0997 187.518 75.9612L174.438 73.7587C173.704 73.634 173.239 72.9275 173.436 72.221L178.742 52.6059C178.996 51.6501 180.251 51.3592 180.915 52.0934C185.938 57.6621 189 65.0039 189 73.0245Z" fill="white"/>
<path d="M171.024 76.7924L166.071 95.0361C165.873 95.7842 165.196 96.3244 164.406 96.3798L142.252 97.8066C141.194 97.8759 140.291 97.0447 140.291 95.992V71.7778C140.291 70.6557 141.321 69.7969 142.45 69.9908L169.556 74.5344C170.614 74.7284 171.306 75.7673 171.024 76.7924Z" fill="white"/>
</g>
<defs>
<clipPath id="clip0_540_8227">
<rect width="69" height="74" fill="white" transform="translate(120 40)"/>
</clipPath>
</defs>
</svg>
