<?xml version="1.0" encoding="UTF-8"?>
<svg width="590px" height="264px" viewBox="0 0 590 264" version="1.1" xmlns="http://www.w3.org/2000/svg" xmlns:xlink="http://www.w3.org/1999/xlink">
    <!-- Generator: Sketch 61.2 (89653) - https://sketch.com -->
    <title>Group 11</title>
    <desc>Created with Sketch.</desc>
    <g id="Welcome" stroke="none" stroke-width="1" fill="none" fill-rule="evenodd">
        <g id="Group-11" transform="translate(-2.000000, -46.000000)">
            <g id="Group-9" transform="translate(407.000000, 46.000000)">
                <path d="M78.1189124,0 C74.4031038,19.8483719 159.050957,76.4977591 152.857512,98 C204.885948,72.7760679 184.881779,50.3785481 154.991643,24.0967358 C114.721956,-11.3114795 91.3325451,8.26999299 78.1189124,0" id="Fill-1" fill="#F74877"></path>
                <path d="M147.314186,100.161249 C155.735072,94.0864228 130.182844,63.7122904 124.085006,64.0020595 C79.6095925,71.2817836 84.0134067,101.896637 70.0764167,124.170786 C66.3009785,132.848372 72.9792545,149.337463 81.9805781,138.345596 C90.9825495,127.352438 132.214377,105.946952 147.314186,100.161249" id="Fill-3" fill="#717FE0"></path>
                <path d="M65.2501543,125.64395 C61.1040821,128.9583 50.6882608,115.902084 41.4858765,125.744541 C32.2847906,135.586354 42.7174923,139.882112 33.4183706,155.96509 C24.1179504,172.048713 22.8356936,204.215313 43.8393859,206.763622 C64.8437275,209.311287 54.1013365,190.839269 64.523001,171.889443 C74.9453148,152.939618 81.3585469,144.340364 82,139.403659 C76.8690247,146.410865 64.0529483,144.36938 65.2501543,125.64395" id="Fill-5" fill="#F74877"></path>
                <path d="M15.9716426,208 C14.3295311,211.508416 3.47851467,206.169975 0.615559611,215.601893 C-2.24739545,225.03251 5.85928782,224.566544 4.89684761,238.15832 C3.9337662,251.749446 5.18282252,263.310754 24.7964692,263.980418 C40.0012291,264.499099 29.2592166,254.677356 30.0466094,238.833191 C30.8352846,222.988375 32.2831127,215.264783 31.145625,211.794764 C30.0273734,218.058631 21.0864898,220.771129 15.9716426,208" id="Fill-7" fill="#717FE0"></path>
            </g>
            <text id="PIXEO" font-family="BebasNeueBold, Bebas Neue" font-size="204.1344" font-weight="bold" letter-spacing="0.08" fill="#F74877">
                <tspan x="11.124" y="194.8663">PIXEO</tspan>
            </text>
            <text id="SPORTWEAR" font-family="BebasNeueBold, Bebas Neue" font-size="89.2131" font-weight="bold" letter-spacing="0.08" fill="#717FE0">
                <tspan x="0" y="294.8178">SPORTWEAR</tspan>
            </text>
        </g>
    </g>
</svg>