<?xml version="1.0" encoding="UTF-8"?>
<svg width="757px" height="408px" viewBox="0 0 757 408" version="1.1" xmlns="http://www.w3.org/2000/svg" xmlns:xlink="http://www.w3.org/1999/xlink">
    <!-- Generator: Sketch 61.2 (89653) - https://sketch.com -->
    <title>Group 11</title>
    <desc>Created with Sketch.</desc>
    <g id="Welcome" stroke="none" stroke-width="1" fill="none" fill-rule="evenodd">
        <g id="Group-11" transform="translate(-2.000000, -14.000000)">
            <g id="Group-9" transform="translate(472.000000, 13.195000)">
                <path d="M120.8301,0.8054 C115.0861,31.4444 245.9371,118.8914 236.3631,152.0834 C316.7901,113.1464 285.8671,78.5724 239.6621,38.0024 C177.4121,-16.6556 141.2561,13.5714 120.8301,0.8054" id="Fill-1" fill="#1A237E"></path>
                <path d="M227.918,154.3786 C240.917,144.9656 201.473,97.9006 192.06,98.3496 C123.405,109.6296 130.203,157.0676 108.689,191.5816 C102.861,205.0276 113.17,230.5776 127.065,213.5456 C140.961,196.5116 204.609,163.3436 227.918,154.3786" id="Fill-3" fill="#717FE0"></path>
                <path d="M101.0576,194.5012 C94.6716,199.6412 78.6286,179.3932 64.4546,194.6572 C50.2826,209.9202 66.3516,216.5822 52.0286,241.5242 C37.7036,266.4672 35.7286,316.3522 68.0796,320.3042 C100.4316,324.2552 83.8856,295.6082 99.9376,266.2202 C115.9906,236.8322 125.8686,223.4962 126.8566,215.8402 C118.9536,226.7072 99.2136,223.5412 101.0576,194.5012" id="Fill-5" fill="#1A237E"></path>
                <path d="M25.291,321.9509 C22.73,327.3419 5.807,319.1389 1.342,333.6319 C-3.123,348.1229 9.52,347.4069 8.019,368.2919 C6.517,389.1759 8.465,406.9409 39.054,407.9699 C62.767,408.7669 46.014,393.6749 47.242,369.3289 C48.472,344.9819 50.73,333.1139 48.956,327.7819 C47.212,337.4069 33.268,341.5749 25.291,321.9509" id="Fill-7" fill="#717FE0"></path>
            </g>
            <text id="PIXEO" font-family="BebasNeueBold, Bebas Neue" font-size="204.1344" font-weight="bold" letter-spacing="0.08" fill="#1A237E">
                <tspan x="11.124" y="194.8663">PIXEO</tspan>
            </text>
            <text id="SPORTWEAR" font-family="BebasNeueBold, Bebas Neue" font-size="89.2131" font-weight="bold" letter-spacing="0.08" fill="#717FE0">
                <tspan x="0" y="294.8178">SPORTWEAR</tspan>
            </text>
        </g>
    </g>
</svg>