<?xml version="1.0" standalone="no"?>
<!DOCTYPE svg PUBLIC "-//W3C//DTD SVG 20010904//EN"
 "http://www.w3.org/TR/2001/REC-SVG-20010904/DTD/svg10.dtd">
<svg version="1.0" xmlns="http://www.w3.org/2000/svg"
 width="400.000000pt" height="400.000000pt" viewBox="0 0 400.000000 400.000000"
 preserveAspectRatio="xMidYMid meet">
<metadata>
Created by potrace 1.14, written by Peter Selinger 2001-2017
</metadata>
<g transform="translate(0.000000,400.000000) scale(0.100000,-0.100000)"
fill="#000000" stroke="none">
<path d="M1440 2893 c-25 -10 -64 -43 -77 -66 -33 -60 -2 -160 59 -189 121
-57 243 73 180 191 -29 55 -106 85 -162 64z"/>
<path d="M2165 2870 c-73 -28 -89 -132 -29 -179 57 -45 156 -10 166 59 11 76
-69 146 -137 120z"/>
<path d="M3651 2821 c-34 -9 -64 -54 -63 -92 2 -74 95 -110 149 -57 64 65 3
172 -86 149z"/>
<path d="M287 2809 c-24 -14 -45 -59 -41 -87 9 -54 43 -82 99 -82 33 0 75 53
75 94 0 64 -77 108 -133 75z"/>
<path d="M2353 2694 c-11 -24 -10 -26 30 -44 229 -101 293 -127 298 -122 4 4
10 17 14 30 6 20 1 25 -42 43 -26 11 -62 27 -79 34 -78 36 -196 85 -202 85 -4
0 -12 -12 -19 -26z"/>
<path d="M452 2665 c-11 -24 -9 -26 38 -50 28 -14 67 -35 87 -46 l37 -21 18
24 c16 22 16 24 0 36 -20 16 -151 82 -161 82 -5 0 -13 -11 -19 -25z"/>
<path d="M1275 2663 c-22 -14 -41 -27 -43 -29 -2 -1 4 -14 13 -28 l17 -25 39
22 c42 24 45 30 26 64 l-13 23 -39 -27z"/>
<path d="M1954 2566 l-108 -103 20 -25 20 -26 110 107 109 106 -22 22 -22 21
-107 -102z"/>
<path d="M3549 2662 c-2 -6 -29 -37 -59 -69 -30 -32 -66 -71 -79 -86 l-24 -26
24 -20 24 -19 30 32 c124 132 137 149 121 158 -8 5 -19 16 -24 25 -5 9 -11 11
-13 5z"/>
<path d="M1602 2620 c-12 -10 -22 -21 -22 -24 0 -8 120 -160 128 -163 4 -2 17
5 29 15 l23 17 -36 45 c-19 25 -43 54 -52 65 -10 11 -24 30 -32 41 -15 21 -16
21 -38 4z"/>
<path d="M727 2607 c-106 -60 -77 -218 43 -234 103 -14 174 92 125 187 -30 57
-111 80 -168 47z"/>
<path d="M2827 2616 c-49 -18 -64 -32 -88 -77 -47 -93 17 -206 122 -214 93 -7
166 70 157 165 -10 98 -101 158 -191 126z"/>
<path d="M1121 2576 c-16 -30 -11 -55 14 -72 25 -17 64 0 76 32 19 53 -64 90
-90 40z"/>
<path d="M1045 2564 c-5 -2 -28 -5 -50 -7 -40 -3 -44 -8 -36 -60 1 -7 101 0
109 8 7 7 -14 62 -23 59z"/>
<path d="M3064 2445 c-7 -29 -2 -38 24 -41 9 -2 45 -8 79 -14 69 -13 83 -9 83
24 0 21 -7 25 -62 35 -35 6 -75 14 -90 17 -23 5 -28 1 -34 -21z"/>
<path d="M3311 2429 c-26 -25 -27 -49 -1 -76 22 -24 49 -21 75 7 15 16 15 22
3 46 -18 38 -50 48 -77 23z"/>
<path d="M1756 2397 c-27 -41 5 -88 54 -78 18 4 39 31 40 53 1 46 -69 65 -94
25z"/>
<path d="M202 2006 l3 -41 80 0 80 0 0 -193 0 -193 50 3 50 3 0 190 0 190 83
0 82 0 0 42 0 41 -216 0 -215 -1 3 -41z"/>
<path d="M819 2021 c0 -29 0 -409 1 -428 0 -9 17 -13 50 -13 l50 0 0 85 0 85
138 0 138 0 0 -82 c-1 -79 0 -82 24 -88 14 -3 37 -4 51 -2 l27 4 0 233 -1 234
-48 -1 c-38 0 -49 -4 -50 -16 -1 -10 -2 -53 -3 -97 -1 -44 -4 -84 -8 -90 -3
-6 -60 -10 -135 -10 l-128 0 -3 106 -3 106 -49 0 c-47 0 -50 -1 -51 -26z"/>
<path d="M1537 2036 c-2 -6 -3 -110 -3 -231 l1 -220 95 -5 c52 -3 141 -4 198
-2 l103 3 -3 42 -3 42 -145 0 -144 0 -1 46 -1 45 136 -1 135 0 0 41 0 42 -132
-2 c-73 0 -134 1 -134 4 -1 3 -2 31 -3 63 -1 44 2 57 14 58 8 1 71 2 140 3
l125 1 3 42 3 41 -190 0 c-132 0 -191 -4 -194 -12z"/>
<path d="M2149 2046 c-1 0 -2 -106 -3 -233 -1 -180 2 -233 11 -234 87 -8 88
-7 88 88 l0 88 35 0 c32 0 39 -6 97 -89 68 -95 67 -95 161 -87 8 1 -13 39 -51
95 l-65 93 33 16 c44 21 66 56 73 112 4 36 0 52 -19 79 -39 57 -76 69 -226 71
-73 2 -134 2 -134 1z m245 -88 c48 -21 46 -88 -2 -111 -22 -11 -85 -15 -137
-8 -8 1 -13 112 -6 129 3 8 124 0 145 -10z"/>
<path d="M2730 1882 c0 -146 2 -171 20 -206 25 -50 51 -69 116 -89 99 -29 229
0 274 62 29 41 36 91 35 251 l0 145 -50 0 -50 0 -1 -150 c0 -99 -4 -158 -12
-172 -26 -47 -117 -68 -177 -41 -47 21 -55 53 -55 216 l0 148 -50 1 -50 2 0
-167z"/>
<path d="M3483 2039 c-18 -5 -48 -24 -67 -43 -32 -29 -36 -39 -36 -81 0 -43 4
-52 39 -85 40 -38 81 -53 184 -65 61 -7 95 -23 103 -48 21 -65 -137 -67 -230
-3 l-29 20 -29 -34 c-15 -19 -28 -40 -28 -47 0 -7 21 -22 48 -34 137 -63 271
-58 338 12 24 26 29 39 29 82 0 36 -6 60 -20 79 -28 38 -99 71 -164 76 -97 8
-164 43 -135 72 25 25 164 16 236 -14 12 -6 23 3 42 31 l26 37 -23 12 c-70 37
-213 54 -284 33z"/>
<path d="M254 1248 c-11 -65 -17 -122 -14 -126 17 -23 28 -2 40 79 7 49 16 92
20 94 4 3 35 -37 69 -88 59 -90 86 -112 95 -78 6 23 17 79 21 104 1 12 6 47
10 78 6 46 4 56 -8 56 -11 0 -19 -22 -28 -81 -7 -45 -14 -84 -15 -88 -1 -5 -2
-13 -3 -20 0 -7 -31 32 -68 87 -38 54 -75 100 -83 101 -13 1 -20 -23 -36 -118z"/>
<path d="M826 1340 c-3 -14 -8 -43 -11 -65 -3 -22 -7 -47 -10 -55 -2 -8 -7
-35 -9 -60 l-6 -45 113 0 c93 0 112 3 112 15 0 12 -16 15 -80 16 -111 1 -106
0 -101 32 2 15 5 32 5 37 1 7 29 11 71 10 47 -1 71 3 74 12 7 18 -5 22 -61 19
-66 -4 -77 3 -69 46 l6 34 95 -1 c52 -1 95 3 95 7 0 4 0 11 0 15 0 5 -49 8
-110 8 -109 1 -109 1 -114 -25z"/>
<path d="M1359 1365 c0 0 -2 -7 -4 -16 -2 -14 5 -16 41 -14 25 1 46 -1 49 -4
2 -4 -3 -53 -12 -109 -9 -56 -13 -105 -9 -109 15 -15 27 19 42 113 9 54 20
102 26 105 5 3 27 5 48 3 29 -2 39 1 42 14 5 16 -6 18 -109 17 -62 0 -113 0
-114 0z"/>
<path d="M1886 1361 c-3 -5 -9 -63 -12 -130 -5 -118 -5 -120 16 -118 15 1 32
22 61 74 22 40 44 75 48 77 4 3 13 -18 20 -47 19 -78 31 -105 47 -103 21 3 21
3 53 124 36 130 36 129 17 129 -10 0 -22 -27 -36 -81 -12 -45 -24 -88 -27 -96
-6 -17 -6 -17 -28 63 -21 72 -43 76 -81 15 -14 -24 -35 -56 -45 -73 l-18 -30
4 33 c14 116 4 201 -19 163z"/>
<path d="M2514 1360 c-44 -18 -91 -96 -87 -147 0 -7 1 -21 2 -32 0 -10 13 -30
27 -45 55 -54 158 -24 194 57 23 49 24 72 9 116 -18 50 -87 75 -145 51z m98
-50 c50 -62 -17 -179 -93 -165 -30 6 -59 40 -59 70 0 95 101 158 152 95z"/>
<path d="M3000 1360 c0 -3 -9 -57 -20 -120 -13 -78 -16 -118 -9 -125 13 -13
28 11 30 45 1 48 14 64 50 66 49 1 64 -9 79 -56 13 -41 24 -53 48 -56 16 -3
16 0 -8 48 -25 53 -25 68 0 68 42 0 71 92 39 125 -10 10 -209 15 -209 5z m178
-29 c6 -1 12 -11 12 -23 0 -44 -14 -52 -94 -53 -70 -1 -76 1 -76 20 1 57 7 61
78 59 37 -1 73 -3 80 -3z"/>
<path d="M3550 1361 c0 -3 -9 -59 -19 -123 -10 -65 -16 -120 -13 -122 12 -12
32 9 32 34 0 21 10 36 38 59 l38 30 37 -63 c20 -35 43 -63 51 -63 23 0 20 13
-19 77 -19 32 -35 62 -35 66 0 5 26 32 57 61 48 43 54 52 35 50 -13 -1 -59
-32 -103 -69 -75 -64 -97 -79 -85 -60 2 4 7 26 9 47 3 22 6 45 7 50 5 21 0 32
-15 32 -8 0 -15 -3 -15 -6z"/>
</g>
</svg>
