<?xml version="1.0" standalone="no"?>
<!DOCTYPE svg PUBLIC "-//W3C//DTD SVG 20010904//EN"
 "http://www.w3.org/TR/2001/REC-SVG-20010904/DTD/svg10.dtd">
<svg version="1.0" xmlns="http://www.w3.org/2000/svg"
 width="400.000000pt" height="400.000000pt" viewBox="0 0 400.000000 400.000000"
 preserveAspectRatio="xMidYMid meet">
<metadata>
Created by potrace 1.14, written by Peter Selinger 2001-2017
</metadata>
<g transform="translate(0.000000,400.000000) scale(0.100000,-0.100000)"
fill="#000000" stroke="none">
<path d="M3425 3321 c-175 -59 -277 -221 -253 -403 27 -208 231 -350 433 -303
234 55 352 312 243 528 -29 59 -108 132 -173 162 -76 34 -177 41 -250 16z"/>
<path d="M383 3108 c-87 -42 -138 -126 -136 -222 1 -62 20 -110 62 -158 64
-73 176 -96 264 -53 62 29 91 57 116 110 94 199 -112 417 -306 323z"/>
<path d="M820 2774 c-6 -14 -10 -29 -10 -33 0 -5 -12 -25 -26 -47 -32 -47 -45
-36 180 -151 94 -47 193 -99 220 -114 l49 -27 39 76 c20 42 37 77 35 77 -1 1
-109 57 -240 123 l-238 122 -9 -26z"/>
<path d="M2960 2700 c-58 -38 -106 -74 -108 -80 -2 -5 6 -20 18 -32 12 -13 31
-42 43 -65 l22 -42 115 77 116 77 -44 65 c-24 36 -47 66 -50 67 -4 2 -54 -29
-112 -67z"/>
<path d="M1599 2596 c-95 -25 -175 -90 -220 -178 -27 -53 -32 -79 -31 -160 2
-213 214 -372 416 -314 145 43 231 147 243 295 5 64 2 89 -16 144 -53 158
-232 255 -392 213z"/>
<path d="M2617 2536 c-77 -42 -102 -119 -62 -195 47 -92 192 -93 240 -2 33 64
14 152 -40 187 -36 23 -104 28 -138 10z"/>
<path d="M2409 2456 c-2 -2 -29 -7 -60 -10 -31 -4 -67 -9 -80 -11 -12 -3 -45
-7 -73 -10 -80 -9 -87 -12 -76 -40 5 -13 11 -50 12 -81 l3 -56 50 6 c28 4 59
8 70 10 11 2 45 6 75 10 30 4 67 9 81 12 l27 5 -15 47 c-7 26 -12 64 -10 85 4
37 4 40 -4 33z"/>
<path d="M202 1276 l3 -41 70 -1 c39 -1 75 -2 81 -3 7 -1 10 -63 9 -191 l-1
-190 51 0 51 0 -1 193 0 193 80 -1 80 0 3 41 3 42 -216 -1 -216 -1 3 -40z"/>
<path d="M819 1260 c0 -33 0 -103 0 -155 0 -52 0 -131 0 -175 l1 -80 50 0 50
0 0 85 0 86 137 -3 138 -3 0 -82 0 -83 51 0 51 0 0 234 -1 234 -47 -1 c-27 0
-50 -5 -52 -11 -2 -6 -3 -54 -2 -106 l0 -95 -130 1 c-71 1 -133 2 -137 3 -5 0
-8 47 -8 104 l0 103 -50 1 -50 2 -1 -59z"/>
<path d="M1539 1316 c-1 -1 -2 -106 -3 -233 l-2 -233 198 0 198 0 0 40 c0 31
-4 40 -17 41 -10 0 -76 1 -148 2 l-129 2 -1 45 0 45 130 1 c72 1 132 2 135 3
3 0 6 18 6 39 l0 39 -130 0 c-72 1 -133 2 -136 2 -8 1 -6 108 2 117 4 4 68 7
143 6 l135 0 0 42 0 42 -190 1 c-104 0 -191 0 -191 -1z"/>
<path d="M2149 1316 c-1 -1 -2 -106 -3 -233 -1 -151 2 -233 9 -234 88 -7 90
-4 89 97 l0 80 35 -1 c32 -1 40 -7 88 -75 76 -108 73 -105 123 -103 25 0 49 2
53 2 4 1 -21 43 -56 95 l-65 93 34 16 c41 20 64 54 71 104 8 61 -16 106 -73
133 -42 21 -64 24 -176 25 -70 1 -129 1 -129 1z m239 -87 c34 -12 47 -37 38
-74 -9 -35 -42 -49 -116 -50 l-65 0 0 67 -1 68 57 0 c31 0 70 -5 87 -11z"/>
<path d="M2730 1148 c0 -164 1 -173 25 -214 35 -60 95 -87 195 -88 125 0 201
51 218 147 4 23 7 105 7 182 l0 140 -51 2 -51 1 1 -152 c0 -130 -2 -157 -17
-180 -30 -46 -105 -62 -168 -36 -51 21 -59 52 -59 217 l0 148 -50 3 -50 2 0
-172z"/>
<path d="M3485 1308 c-80 -29 -119 -83 -104 -145 16 -72 84 -112 214 -128 66
-7 103 -23 110 -46 9 -27 -1 -37 -43 -48 -50 -14 -96 -6 -164 29 l-57 30 -26
-34 c-14 -18 -25 -37 -25 -43 0 -15 69 -50 130 -65 104 -27 205 -10 256 43 25
26 29 38 29 84 0 46 -4 58 -30 85 -48 51 -65 57 -205 76 -51 6 -90 28 -90 48
0 35 125 42 209 12 49 -18 62 -13 86 35 14 26 14 27 -28 42 -97 36 -204 46
-262 25z"/>
<path d="M277 633 c-4 -8 -12 -47 -23 -118 -3 -22 -9 -59 -14 -82 -6 -33 -4
-43 8 -48 20 -7 19 -8 27 50 7 52 11 75 19 110 2 11 5 24 5 28 1 5 31 -36 67
-91 77 -116 97 -125 107 -47 3 22 11 73 17 114 8 51 9 76 1 84 -14 14 -27 -21
-36 -103 -4 -36 -10 -70 -14 -77 -4 -7 -30 24 -66 78 -55 85 -88 119 -98 102z"/>
<path d="M830 634 c0 0 -4 -25 -10 -55 -5 -30 -12 -74 -15 -99 -3 -25 -8 -56
-11 -70 l-5 -25 113 0 c94 0 113 3 113 15 0 12 -17 15 -93 14 l-93 0 6 35 c4
20 9 38 11 40 2 2 34 5 71 5 53 1 68 4 71 17 2 13 -9 15 -68 14 l-70 -1 2 38
c2 21 8 39 13 41 6 2 49 3 98 2 73 -1 87 1 87 15 0 13 -16 15 -110 15 -60 0
-110 0 -110 -1z"/>
<path d="M1359 635 c0 0 -2 -8 -4 -17 -3 -15 3 -17 35 -14 59 6 61 1 45 -99
-19 -112 -19 -125 -1 -125 10 0 17 16 22 48 3 26 11 76 18 112 l11 64 49 1
c30 0 51 5 54 13 2 6 0 13 -5 13 -6 1 -219 5 -224 4z"/>
<path d="M1885 630 c-3 -5 -8 -63 -11 -129 -5 -114 -4 -120 14 -118 13 1 36
28 68 81 26 44 49 76 50 71 25 -90 46 -155 52 -155 23 1 36 29 62 131 35 134
34 126 16 126 -9 0 -22 -30 -37 -86 -13 -47 -23 -89 -21 -93 1 -5 -2 -8 -8 -8
-5 0 -11 7 -11 15 -2 16 -5 32 -9 40 -1 3 -3 8 -5 13 -14 54 -19 62 -35 62
-16 0 -48 -41 -79 -102 -8 -16 -17 -28 -21 -28 -5 0 -3 112 4 157 3 22 -19 40
-29 23z"/>
<path d="M2499 617 c-67 -45 -93 -141 -55 -200 53 -80 194 -32 221 76 10 37
-2 90 -24 116 -28 33 -100 37 -142 8z m106 -32 c53 -53 16 -156 -62 -171 -25
-5 -37 -1 -57 19 -15 15 -26 37 -26 53 0 43 31 95 64 110 43 19 54 17 81 -11z"/>
<path d="M2999 630 c0 -3 -2 -14 -3 -25 -4 -30 -28 -178 -31 -197 -4 -16 21
-34 28 -20 3 4 8 28 11 55 4 26 10 48 14 48 53 10 102 -1 102 -24 1 -25 36
-82 50 -82 17 1 15 16 -6 59 -19 39 -18 56 4 56 23 0 47 26 55 59 5 22 -9 70
-22 72 -26 4 -201 4 -202 -1z m174 -29 c20 -1 24 -55 5 -67 -7 -5 -45 -8 -85
-9 -70 -1 -73 0 -73 23 0 56 12 61 153 53z"/>
<path d="M3545 591 c-3 -25 -9 -59 -11 -76 -20 -115 -20 -124 -11 -125 4 0 12
0 17 0 6 0 10 13 10 28 0 21 10 37 38 59 l39 31 37 -64 c26 -45 42 -64 57 -64
19 0 19 2 -7 48 -15 26 -34 56 -41 67 -21 31 -16 40 42 88 52 42 58 54 28 53
-7 -1 -45 -28 -85 -62 -102 -84 -97 -84 -83 -9 6 36 11 65 11 66 -1 0 -8 2
-18 4 -12 2 -18 -8 -23 -44z"/>
</g>
</svg>
